<?xml version="1.0" standalone="no"?>
<!DOCTYPE svg PUBLIC "-//W3C//DTD SVG 20010904//EN"
 "http://www.w3.org/TR/2001/REC-SVG-20010904/DTD/svg10.dtd">
<svg version="1.0" xmlns="http://www.w3.org/2000/svg"
 width="600.000000pt" height="480.000000pt" viewBox="0 0 600.000000 480.000000"
 preserveAspectRatio="xMidYMid meet">

<g transform="translate(0.000000,480.000000) scale(0.100000,-0.100000)"
fill="#000000" stroke="none">
<path d="M2585 4348 c-3 -7 -6 -175 -7 -373 l-3 -360 -379 -3 c-289 -2 -382
-5 -388 -15 -4 -6 -8 -202 -8 -434 0 -370 2 -423 16 -437 13 -14 59 -16 353
-16 259 0 341 3 349 13 5 6 13 39 17 72 37 329 120 556 259 703 95 101 190
143 481 212 99 24 186 47 193 53 17 13 18 567 0 585 -18 18 -877 17 -883 0z"/>
<path d="M4083 3898 c-6 -7 -13 -58 -16 -113 -13 -239 -115 -454 -270 -571
-104 -79 -187 -111 -486 -185 -218 -55 -293 -78 -366 -113 -219 -107 -332
-242 -371 -443 -15 -81 -20 -468 -6 -491 7 -10 105 -12 458 -10 l449 3 3 368
2 367 344 0 c300 0 347 2 360 16 14 13 16 67 16 434 0 230 -3 425 -6 434 -4
10 -18 16 -41 16 l-36 0 7 43 c4 23 9 86 13 140 5 79 3 101 -8 108 -20 12 -35
11 -46 -3z"/>
<path d="M970 1617 c0 -21 7 -36 20 -45 19 -11 20 -23 20 -186 0 -166 -1 -175
-20 -181 -15 -5 -20 -15 -20 -41 l0 -34 89 0 89 0 4 30 c4 23 -1 33 -19 45
-23 15 -23 19 -23 184 0 166 0 169 23 184 19 12 23 22 19 46 l-4 31 -89 0 -89
0 0 -33z"/>
<path d="M4000 1620 c0 -19 7 -34 20 -42 19 -12 20 -24 20 -190 0 -169 -1
-178 -21 -188 -14 -8 -19 -19 -17 -38 3 -27 4 -27 78 -27 72 0 75 1 78 24 3
16 -3 30 -16 40 -18 15 -20 31 -24 173 -2 87 -2 156 -1 154 2 -2 28 -73 57
-157 93 -265 75 -234 136 -234 l53 0 68 200 67 200 1 -157 c1 -154 1 -158 -22
-173 -18 -12 -23 -22 -19 -45 l4 -31 87 3 c85 3 86 3 89 30 2 19 -3 31 -17 40
-20 12 -21 22 -21 188 0 164 1 176 20 188 13 8 20 23 20 42 l0 30 -88 0 -88 0
-69 -204 c-61 -181 -85 -231 -85 -179 0 9 -30 99 -66 200 l-66 183 -89 0 -89
0 0 -30z"/>
<path d="M1236 1488 c-10 -37 -7 -46 14 -53 18 -6 20 -15 20 -121 0 -93 -3
-114 -14 -114 -21 0 -29 -17 -22 -46 6 -23 10 -24 90 -24 78 0 84 1 90 23 9
33 8 35 -14 42 -18 6 -20 15 -20 110 0 115 6 125 67 125 47 0 53 -15 53 -122
0 -88 -2 -98 -21 -108 -14 -8 -19 -19 -17 -38 3 -27 4 -27 89 -30 86 -3 87 -3
91 23 4 20 0 30 -18 42 -23 14 -24 21 -24 114 0 110 5 119 75 119 46 0 55 -22
55 -135 0 -74 -2 -86 -20 -95 -13 -7 -20 -21 -20 -40 l0 -30 90 0 90 0 0 30
c0 19 -7 33 -20 40 -18 9 -20 21 -20 98 -1 164 -22 203 -117 209 -44 3 -67 0
-97 -16 -22 -12 -42 -17 -46 -12 -18 31 -110 40 -165 17 -31 -13 -35 -13 -35
0 0 11 -15 14 -64 14 -58 0 -64 -2 -70 -22z"/>
<path d="M1926 1494 c-11 -30 -6 -53 14 -59 19 -6 20 -15 20 -195 0 -180 -1
-189 -20 -195 -20 -6 -25 -29 -14 -59 5 -13 24 -16 100 -16 l94 0 0 35 c0 29
-4 36 -25 41 -21 5 -25 12 -25 43 l0 37 41 -4 c84 -8 167 47 189 126 22 81 5
194 -36 233 -31 29 -115 37 -167 16 -32 -14 -37 -14 -37 -1 0 21 -125 20 -134
-2z m258 -80 c11 -11 16 -35 16 -82 0 -103 -35 -146 -107 -134 -22 4 -23 8
-23 108 0 88 3 105 18 113 26 16 79 13 96 -5z"/>
<path d="M2386 1494 c-11 -30 -6 -53 14 -59 18 -6 20 -15 20 -115 0 -100 -2
-110 -21 -120 -14 -8 -19 -19 -17 -38 l3 -27 110 0 110 0 3 27 c3 24 -2 28
-37 39 l-41 12 0 93 c0 103 2 106 76 106 l34 0 0 49 c0 47 -1 49 -27 49 -16 0
-43 -9 -60 -20 -33 -20 -33 -20 -33 0 0 18 -7 20 -64 20 -49 0 -65 -4 -70 -16z"/>
<path d="M2794 1490 c-61 -31 -88 -86 -89 -180 0 -124 46 -179 156 -187 53 -4
72 -1 109 19 76 39 111 129 90 237 -11 61 -38 96 -87 117 -48 21 -131 18 -179
-6z m133 -74 c26 -23 28 -30 28 -99 0 -88 -17 -117 -70 -117 -54 0 -70 29 -70
122 0 72 2 82 24 99 31 25 54 24 88 -5z"/>
<path d="M3117 1503 c-18 -17 -6 -59 21 -74 21 -13 39 -46 87 -162 l59 -147
41 0 42 0 62 149 c49 116 68 151 87 160 21 9 25 17 22 44 l-3 32 -81 3 -82 3
-5 -28 c-4 -21 -1 -33 14 -45 20 -17 20 -17 -12 -113 -18 -52 -35 -92 -39 -88
-3 5 -19 48 -34 96 -26 78 -28 90 -14 103 9 9 13 26 10 44 l-4 30 -82 0 c-46
0 -86 -3 -89 -7z"/>
<path d="M3690 1488 c-67 -34 -92 -89 -88 -190 3 -81 17 -112 69 -150 33 -25
118 -34 174 -18 54 15 69 31 61 66 -6 23 -10 25 -34 18 -15 -5 -49 -9 -75 -9
-39 0 -53 5 -68 24 -10 13 -19 32 -19 42 0 17 8 19 88 19 113 0 126 8 123 79
-1 29 -8 66 -17 83 -30 59 -134 76 -214 36z m122 -65 c10 -9 18 -27 18 -40 0
-19 -5 -23 -29 -23 -16 0 -43 -3 -60 -6 -28 -6 -31 -4 -31 19 0 27 41 67 68
67 9 0 24 -7 34 -17z"/>
<path d="M4815 1493 c-74 -38 -97 -85 -97 -187 0 -115 51 -173 161 -183 45 -4
68 -1 105 16 45 19 48 23 41 48 -9 37 -7 36 -56 23 -74 -20 -126 1 -143 58 -7
22 -6 22 78 22 46 0 96 4 110 10 23 8 26 15 26 61 0 68 -25 118 -66 135 -44
18 -122 17 -159 -3z m115 -73 c11 -11 20 -28 20 -39 0 -15 -10 -19 -57 -24
-31 -3 -60 -4 -64 -1 -11 7 9 57 28 72 24 18 50 15 73 -8z"/>
</g>
</svg>
