<svg id="Capa_1" data-name="Capa 1" xmlns="http://www.w3.org/2000/svg" viewBox="0 0 1904.53 1946.39"><defs><style>.cls-1{fill:#fdfefd;}.cls-2{fill:#6e7073;}.cls-3{fill:#f2a41f;}.cls-4{fill:#1f95b1;}.cls-5{fill:#faefc9;}.cls-6{fill:#528088;}.cls-7{fill:#6b9c8f;}</style></defs><path class="cls-1" d="M5.14,1946.39V0H1909.67V1946.39ZM267.49,420h0c-6,1-12.44,1.7-10.35,10.64-2.45,3.53-5.44,6.72-7.9,10.11-4,5.53-10.78,9.68-10.82,17.7-2.8,0-4.45,1.21-6.56,3.37-5.4,5.52-9.05,12.21-13.78,18.14-3,3.81-7,6.51-7.6,12.46-.39,3.57-4.32,6.93-5.28,11.41-.52,2.36-4.18,4.05-6.11,5.77-3.14-.14-2.17-5-6.6-3.57-1.52,4.09-1,8.95-.56,13.51.54,6-.76,11.05-5.48,14.49-3.4,2.48-4.59,5.24-4.66,9.23,0,2-.77,4.72-2.19,5.86-9.05,7.28-6.86,20-13.81,28-4.64,5.29-3.86,12.79-9.27,17.81-2.92,2.72-8.05-.1-9.39,5.82,4.07,3.81,7,9.16,2.81,14.79-4.55,6.17-9.82,11.71-7.13,20.3.68,2.17-.75,3.7-2.27,4.73-4.65,3.13-5.07,7.84-5.06,12.72,0,3.51,0,7-2.06,10-4.87,7.36-9.09,14.9-7.77,24.28a5.42,5.42,0,0,1-1.13,3.68c-4.13,5.38-4.14,11.32-2.78,17.52-.1,1.89-.21,3.78-.32,5.68-6.64,1.7-9.05,7.68-9.71,12.88-1.09,8.59-.07,17.46.07,26.22-.06,1.41-.12,2.81-.17,4.22-5.53,1.53-8.08,12.62-4.49,19.44l-.41,4.65c-1.29.23-3.71.41-3.72.68-.27,8.37-5.68,16.63-.76,25.13-.1,1.6-.19,3.19-.29,4.79-4.77-.64-5.19,2.35-5.07,5.95.53,15.89-3.73,31.54-2,47.6.65,5.92-3.35,11.81-3,18.41,2.16,39.5-4,79.26,4.6,118.65,2.17,10,.42,20.81.37,31.25,0,3.87.15,7.28,5.56,6a.71.71,0,0,1-.07,1.09c-2,6,.14,12.1-.29,18.16-.2,2.87,2.25,4,5.13,3l.17.15c-3.56,5.7-.5,11.43.13,17.09.17,1.46,2.71,1,4.22,1.25l.05,2.44c-.13,10.67-.11,21.34-.44,32-.28,9.31,0,18.07,8.67,24.37,2,1.44,3.94,6,3.08,7.5-1.83,3.28.86,4.54,1.09,6.53.9,7.8,6.9,13.12,8.62,20.72,1.42,6.31.76,13.54,4.07,18.88,4.49,7.22,9.28,13.94,10,22.73.29,3.6,3,3,5.43,2.6,4,4.9,5.45,11.3,7.91,16.8,2.32,5.21,7.71,9.77,6.7,16.44-1.82,4.81-1.07,8,5,7.65l.34,3.15c-2.75,3.14-1.26,6.48-.48,9.82,2.65,11.26,11.81,20.14,11.68,32.5,0,2.59,2.78,4.47,4.84,6.18a9.61,9.61,0,0,1,3.62,4.92c3.59,12,6.45,13.74,19.64,13.24,5.39-9.84-6.9-17.81-3-27.54.11-.27-1-1.38-1.65-1.54-3.78-.87-3.7-3.69-4.08-6.75-.78-6.32-2-12.61-3.23-18.86-1-4.81-8-6.38-7.39-11.77,1.14-10.67-7.62-19.38-5.46-30.16.21-1.09-1-2.39-1.25-3.65-2.23-12.18-8.39-23.44-8.33-36.2,0-5.29,1.47-10.9-1.1-15.85-5.8-11.17-8.93-22.65-8.7-35.49.32-17.16-3.22-34.16-5.41-51.11-2-15.49-4.52-30.77-4.09-46.46.36-13.12,0-26.26.08-39.38,0-6.77-1.43-13.81,4.85-19.18,2.06-1.76,1.45-5,1.57-7.67a111.25,111.25,0,0,0-1.72-26.3c-1.61-8.29,2.5-15.51,3.66-23.24,2.36-15.8-.83-31.79,5-47.84,3-8.22,6.21-17.7,6.57-26.77,4.55-3,8.72.64,12.82-.34,1.76-3.46.78-7,1-10.41.32-5.94.73-11.6-6.88-14.18-4.81-1.63-2.82-6.37-1-8.83,3.45-4.55,2.94-9.45,3.11-14.45.09-2.62-1-6,1.36-7.62,4.13-2.93,3.2-6.92,3.49-10.83s-.21-7.57,3.35-11.51c2.67-2.95,4.66-9.44,1.41-14.7l.19-3.16c3.75.09,6.55-1.32,6.14-5.46-.46-4.57,2.39-5.9,6-6.82-1.48-7.24-1.64-13.74,3.18-19.93,1.77-2.27,4.72-6.57,0-9.77,1-3.63,1.72-7.38,4.72-10.06,3.05.91,4.62,0,6.09-3.14,2.28-4.82,2.56-11.63,5.38-14.48,9-9.16,9.74-22,16.5-32.29a109.32,109.32,0,0,0,15.73-39.1c6.65-.34,10.36-4.86,11.55-10.64,1.53-7.46,4.51-13.38,10.9-17.74a15.3,15.3,0,0,0,5.63-7.51c1.36-3.63,4.38-6.64,6.52-9.68,4.45,1.12,1.58,7,7.23,7.12.6-9.1,1-18.21-.13-27.38l.71-3.88c7-.14,12-3.8,14.56-10a45.15,45.15,0,0,1,12.07-17c3.69-3.22,4.8-6.76,2.73-11.22.17-.88.33-1.76.5-2.64,9.19-.28,15.48-7.25,14.63-16.21l.54-4c7.1,1.56,10.35-3.58,14.66-7.72,6.75-6.47,8.21-18.42,20-19a17.72,17.72,0,0,0,.19-9.23c3.9,1.5,5.63-1.23,7.93-3.63,7.36-7.68,15.38-14.75,22.38-22.73,3.68-4.19,10.26-6.68,9.86-13.87l.32.58-.29-.6c5,1.44,8.43-.28,12.5-3.81,3.46-3,1.85-9.53,6.82-9.78,5.52-.28,7.75-4.33,10.87-7.24,4-3.76,5.93-9.83,13.2-9.73,2.85,0,1.92-3.11,1.12-5.14l.21-.18c6.7.49,9.4-3.17,9.71-9.33l.12-.06c7.71,2.89,11.88-3.07,16.84-6.84,6.07-4.62,9-12.59,18-14.61,2.9-.66,7.83-2.16,10.1-4.86,6.82-8.07,16.54-11.94,24.36-18.33,5.75-4.71,13.74-3.69,18.65-9.39,7-8.11,16.11-12.69,26-16.58,3.52-1.38,8.4-3,10.35-5.22,2.54-2.92,9.52-3.13,7.63-9.53l2.63-.31c3.81,2.21,7.08.54,10.58-1.12,6.41-3,12.47-6.77,19.32-9,7.85-2.6,13.25-10.4,22.23-11a26.67,26.67,0,0,0,.22-3.76l.44.35-.45-.33c2.84.13,5.69.13,8.52.43,5.37.57,7-2,6.14-6.9l3.54-1.45c.11,2.21,1.19,3.37,3.49,3.42,4.21.09,7.28-1.87,11-3.77,9.68-4.92,20.42-8.83,31.14-10.34,10.28-1.45,16.76-10.75,26.95-10.8,6.68,0,11.54-4.94,17.86-5.71,3-.36,2.59-2.86,2.59-5l4.16-.24c4.19.17,8.37.33,12.55.53,3.62.17,4.52-1.91,4.25-5l11.35-3c3.14,3.38,19.09,5.3,21.62,1.68,2.66-3.81,5.85-3.82,9-3.24,14.94,2.76,28.35-6.84,43.13-5.07.88.11,2.48-.53,2.74-1.21,1.72-4.55,5.55-3.42,8.86-3.46,13.12-.12,26.27.38,39.35-.33,19.51-1.07,39-3.07,58.45-4.44,5.86-.41,11.78.09,17.67-.08,18.86-.54,37.16,5,56,5,8.38,0,16.41.36,25.19,3.5,11.3,4.05,25.06,8.92,37.55.29l3.75-.09c0,3.4,1.35,5.79,5,5.69,5.74-.17,11.59,1.21,17.19-1.09,10.55-1.88,19,6.66,29.39,5.8-.45,3.69,1.2,5.24,4.88,5.06,4.91-.23,9.83-.29,14.74-.43l-.47.34.46-.35c-.89,3.89.85,5.72,4.63,5.19,6.7-.95,11.7,2.35,16.72,6,3,2.17,6,4.12,10.17,3.79,10.36-.82,20.19,2.75,28.84,7.28,4.86,2.54,11.33,1.76,14.63,6.26,6.9,9.4,15.84,8.23,25.25,6.12l.32.25c-2,4.81,1.08,5.62,4.67,5.69,5.07.1,10.14,0,15.2-.1l0,0c-.11,2.12-.49,4.39,2.49,5,6.72,1.27,11.39,6.37,17.21,9.19,5,2.42,10.33,5.18,16.4,3.82a1.35,1.35,0,0,1,.67.7c-2.6,4.17-.82,8,3.34,6.93,11.89-3.06,18.15,7.23,24.43,12.18,8.43,6.64,16.68,7.37,25.73,8.71l-.36.31.39-.27c-.43,1.92-.06,3.57,1.91,4.37,1.59.64,2.24-.5,2.71-1.75l4.65.87c.68,3.87-2.16,10.23,3.75,10.66,5.32.39,8.4,3.4,11,6.27,4.76,5.17,9.6,4.35,15.1,3.05.78-4.38-.54-8-1.21-11.86-1.48-8.58-10.59-9-13.85-15.4-4-7.82-11.26-8.25-18.92-6.57-5.13-3.84-7.84-11.05-15.61-11.2.84-4.12-.5-6.07-4.94-4.93.54-2.19.66-3.93-1.92-5.3-7.23-3.84-13.25-9.15-19-15.06-3.73-3.84-6.61-8.93-12.45-10.67-6.88-2-15.48-2-16.84-12-.22-1.63-2.16-2.22-3.85-2.33-10.5-.67-19.32-6.26-25.78-13.22-10.76-11.62-25.67-14.87-38.69-21.51-6-3.08-12.09-5.46-17.25-10.13-3.16-2.85-7.18-3.32-10.49.53l-3-.49c-1.83-7.23-8.23-10.54-18.34-9.47l-2.48-.36c-.22-1.28-.17-3.53-.73-3.7-6.39-1.85-8.54-7.35-11.55-12.35-2.16-3.6-6.06-5-10.36-5-6.67.06-13.34.07-20-.05-2.09,0-4.6.1-6.18-.95-7.38-4.87-14.85-8.51-24.09-9.13-5.43-.37-10.86-3.47-15.94-6-9.2-4.66-18.56-6-28.5-3.16l-7.91-.51c-2-6.26-6-7-11.4-4.28l-3.14-.27c.21-5.1-2.77-6.22-7.2-6.23-5.81,0-11.73.86-17.24-2.35-14.63-8.53-31.88-6.32-47.6-11.41-14-4.54-30.55,3.34-44.78-5.45-25.65-.61-51.47-1.62-76.94-.67-20.21.75-41.65-5-61.16,5.41-21.46-3-42.15,3.83-63.28,5.17-7.94.5-16.52,2.77-21.27,10.93l-7.84.45c-5.72-4.26-11.61-1.41-17.51-.52-3.31.5-3.71,2.49-3.49,5.13l-3,.44c-6.14-3.41-11.25-1.75-13.11,4.25l-3.07.3a48.23,48.23,0,0,0-26.9.45c-9.33,3-18.08,7.66-27.94,10.47-6.76,1.92-14.52,4.16-21.44,7.64-9.23,4.64-20.42,5.46-28.69,12.24-6.51,5.33-15.49,3.28-21.78,8.66a20.8,20.8,0,0,1-15.82,5.38c-9.35-.67-9.44-.07-8.11,10.12l-.29-.48.22.52c-14.18-3.44-25.84,4.59-34.22,12.64-11.85,11.38-27.18,15.61-39.87,24.87-9.24,6.73-19.44,12.26-28.16,19.89-3.63,3.18-7.11,6.22-11.85,8.41-6.48,3-15.68,4.61-16.28,14.72a.77.77,0,0,1-.91.34c-6.08.08-11.48,1.46-15.86,6.26a50.63,50.63,0,0,1-11.28,9c-5.28,3.23-10.56,6.67-15,12-7,8.48-14.21,17.48-24.94,22.6a61.07,61.07,0,0,0-16.6,12.47c-5.57,5.88-11.47,12.57-15.86,19.7-1.61,2.63-6.12,5.64-4,10.27l-.64,1.48c-5.94-.11-11.24.82-12.64,7.92-.52,2.6-2.24,3.57-4.63,3.32-3.16-.33-4.18,2.24-6.2,3.7-4.88,3.53-3,10.78-8.52,13.6s-6.05,7.38-4.29,12.7c-5.24,3-4,10.22-8.91,13.43Zm321,1452.68c.76,3.35-1.43,8,3.9,9.72,2.52-3.32,1.84-6.71,1.61-10-.91-9.89,4.24-19.07,4.23-28.45,0-11.23,5.45-20.68,7.8-30.93,2.18-9.51,3-20,8.09-29.19,2.07-3.73,5.65-7.88,4.9-13-1-6.68,2.81-12,5.87-17a126.84,126.84,0,0,0,10.55-21c.69-1.75-.34-4,1.56-5.27,9.31-6.17,9.22-17,13-26l5-.26a163.71,163.71,0,0,1,29.46,18.32c10.88,8.53,24.2,10,35.39,16.91,4.24,2.6,10.32,4.08,14.32,6.61,9,5.69,19.28,8.11,28.2,13.54,6.72,4.09,15,3.79,21.69,6.84,13.43,6.1,26.52,12.49,41.49,13.65,1.32.1,2.92,0,3.9.67,9.38,6.56,19.54,10.37,31.17,9.58a12.22,12.22,0,0,1,4.74.57c12.92,4.5,25.83,9,39.72,9.45a22.37,22.37,0,0,1,4.77.56c18.87,4.74,38.14,8,57.4,8.88,20,.85,39.79,2.88,59.67,4.68,35.57,3.23,70.69-6,106.24-4.52a7.73,7.73,0,0,0,4.63-1c6.33-4.68,13.65-4,20.74-3.94,14.83.2,28.68-5.88,43.37-6.36a4.82,4.82,0,0,0,1.55-.41c10.73-4.29,21.65-7.82,33.32-8.42,1.33-.07,3.18.09,3.88-.69,7.1-7.88,17.85-3.76,26.56-8.17,6.45-3.27,15.85-4.39,22.65-7.38,11.4-5,23.6-7.56,34.86-12.87,4.16-2,7.88-6.39,12.61-5.86,8.1.91,13.08-5.37,18.79-8.41,8.66-4.62,18.36-6.39,26.68-11.75,7.85-5.07,16.92-8.19,25.13-12.76,9.85-5.49,19.38-11.57,29-17.47,7.8-4.78,15.72-9.41,23.25-14.58,7.18-4.92,14.21-10.61,21.57-14.62,11-6,20.4-13.78,29.37-21.65,11.14-9.77,23.74-17.76,34-28.69,3.27-3.48,6.81-7.78,11-10.07,12.7-7,22.34-17.78,31.06-28.29,12.81-15.43,27.35-29.13,40.11-44.46,2.29-2.75,8.09-5.13,4.71-11.12-1.06.37-2.29.43-3,1.08-5.6,5.47-10.72,11.49-16.72,16.47-8.13,6.75-17.88,11.58-25.14,19.35-8.4,9-19.74,13.6-29.55,20.33-8.87,6.09-18.22,12-27.82,17.23s-18,14-28.14,17.9c-9.06,3.48-16.62,9.39-25.93,12.74-12.91,4.65-25.26,12.12-37.83,18.44-7.87,4-16.84,6.35-24,10.82-7.87,4.91-16.57,5.28-24.59,8.26s-16.28,6.56-25,8.33c-4.52.91-9.7,1.19-13.77,3.39-10.35,5.61-21.07,9.28-32.92,9.34-1.3,0-3,0-3.83.78-7.74,7.17-18.56,6.57-27.34,8-13.57,2.13-27,5.22-40.71,6.86-25.73,3.1-51.08,9.41-77.24,9-18.49-.28-37,.56-55.48-.11-23.66-.85-47.55,3-71-3.18-8.9-2.36-18.19-.95-27.16-2.18-18.85-2.59-36.92-9.92-56.3-9.54a3.94,3.94,0,0,1-1.57-.27c-15.86-6.79-33.06-8.74-49.5-13.47-6.05-1.74-11.1-5.49-17.75-6.22-13.29-1.47-25.06-8.43-37.63-12.65-10.39-3.48-20.91-6.46-30.69-11.74-8.75-4.71-19.56-5.15-27.12-12.43a10.56,10.56,0,0,0-5.56-2.83c-10-1.86-17.57-9-27.19-12.36-11.55-4-22.21-11.62-32.95-18.27-9.19-5.7-19.29-10.67-28-16.74-12.07-8.4-25.1-15.58-36.1-25.73-10.35-9.56-22.64-16.83-33.81-25.5-13.88-10.78-26.9-22.42-40.15-33.85-12.18-10.5-23.63-21.94-34.82-33.26a292.27,292.27,0,0,1-26.4-30.61c-10.88-14.57-23.78-27.65-34.45-42.36-13.71-18.91-26-38.86-39.11-58.2-1.84-2.71-1.78-5.12-1.17-7.86-2.24-.5-5-.73-5.63-2.85-2.14-6.88-6.83-12.15-10.32-18.17-7.56-13-12.89-27.27-20.64-40.33-5.26-8.86-7.63-19.4-11.88-28.64-4.78-10.41-8.6-21.18-13.27-31.6-6.89-15.36-10.36-32-16.61-47.48-8-19.85-12.77-40.52-17.62-61-3.46-14.64-7.58-29.37-9.69-44.19-2.16-15.15-3.11-30.52-5.26-45.79-2.23-15.81-1.13-32.09-1.6-48.16-.13-4.54.25-9.38-1.21-13.52-4.65-13.24-1.86-27.06-1.1-40,.66-11.11,3.2-22.65,2.52-33.91-1.27-21.06,6.56-41,6.29-61.83a6.86,6.86,0,0,1,.69-2.28c4.65-12.28,4.32-25.57,7.49-38.3s9.77-26.06,5.68-40.3c-.35-1.22,1.79-3.15,2.14-3.73.34,3.12-6.22,2.45-5.89,7,.48,6.6-3.65,11.2-7.21,15.91-2.2,2.9-3.78,6-3.66,9.5.17,5.32-2.47,7.46-9.91,6.53,5.75,3.06,6.09,6.62,4.49,8.89-3.24,4.59-4.6,9.78-6.4,14.85-2.83,8-5.69,15.92-8.11,24-1,3.48-2.08,7.11-2.83,10.49-2,9.06-7.07,17.39-7.41,26.62-.31,8.48-3.63,16.33-6.47,23.44-3.56,8.89-5.15,17.94-7.16,26.93-2.18,9.74-1.56,19.88-4.06,29.8-5.55,22-4.64,45.06-5.62,67.32-1.81,41.17-3.07,82.57,1.95,124.09,2.72,22.48,5.84,45.18,7.4,67.92.18,2.66.09,5.52,1,7.94,7.49,19.62,9.71,40.66,17.18,60.45,4.28,11.33,6.57,23.7,10.55,35.51a512.45,512.45,0,0,0,19.68,49.77c5.61,12.31,10,25.3,16.07,37.55,4,8,7.29,16.44,11.93,24,7.08,11.61,15.27,22.65,22.2,34.24,8.33,13.92,16.53,28,26.6,40.53,3.22,4,3.09,9.26,7.79,12.7,6.57,4.79,10.46,12.73,15.52,19.18,5.25,6.69,10.51,13.69,15.71,20.51,8,10.44,18.11,19.23,26.13,29.64,7,9.12,15.37,17,23.61,24.58,11.55,10.57,24.17,20.2,34.89,31.57,11.1,11.77,24.64,20.2,36.58,30.68,4.91,4.31,11.51,7.2,14.3,13.8-5.81,10.85-6.62,23.06-9.39,34.74-.85,3.6-1.26,7.26-2.19,10.9-1.68,6.63-6.83,13.1-6.74,18.73.3,17.34-5.15,33.68-6.25,50.68-1.76,27.52,2.16,54.58,5.52,81.72C584.7,1870.45,585.6,1872.3,588.51,1872.68Zm551-212c.63-5.32,5.9-3.17,7.92-7.87,6-14,19.16-22.9,27.25-35.77,5.1-8.11,12.79-14.7,18.39-22.93,4.74-7,9.36-14.18,15.18-20.55,4.83-5.28,10.5-9.57,14.84-15.66,6.06-8.53,10.39-18,17.16-26.28,11.09-13.51,20-28.83,29.83-43.36,7-10.34,14.47-20.34,20.33-31.47,4.07-7.73,8.8-15.4,14.66-21.78,6.37-6.94,9.08-15.82,13.44-23.55,4.53-8,7.92-17.14,13-25.17,6.52-10.39,11-21.83,16.3-32.76a187.64,187.64,0,0,0,11.78-31.1c1.48-5.22,1.39-11.86,4.52-15.82,7.43-9.41,5.93-21,8.27-31.21,3.48-15.16,1.36-31.45,1.75-47.24.46-18.53-7.15-34.27-17.08-48.1-11.55-16.09-30.52-22.24-49.37-26.07-17.69-3.6-34.43,5.37-52,5.69a1.46,1.46,0,0,0-.78.15c-9.2,5.89-20.13,6.31-30.06,9.74-5.65,2-11.67,3.16-16.94,5.69a125.32,125.32,0,0,1-23.31,8.08c-7.94,2-15.66,4.73-23.27,7.38-14.47,5.06-28.82,9-44.34,7.5-4.2-.42-7-3-9.19-5.63-7.64-8.93-7.06-19.8-3.78-29.83,3.81-11.66,3.55-23.87,7-35.59s-1.82-24.26,4.69-36.76c4.65-8.92,2.16-20.89,5.07-31.73,2.71-10.06,8.33-20.12,7.16-31.28a4,4,0,0,1,.74-2.26c6.81-11.13,8.41-24.17,12.73-36.2,1.45-4,5.33-6.43,5.47-10.83.39-13.21,8.76-23.63,14.35-34.4s13.11-21,19.28-31.62c5-8.63,10.91-14.85,19.3-19.78,6.85-4,13.89-7.55,20.82-11.29,11.56-6.25,21.33-15.71,33.29-21.43,11.11-5.31,21.08-12.54,32.27-17.8,7.18-3.38,14.84-6.83,21.06-11.64,9.12-7.06,19.23-12.36,28.87-18.4,10.21-6.4,22.31-9.89,32.18-16.67,17-11.7,35-21.85,52.68-32.27,14.4-8.48,26.54-19.94,41.51-27.77,10.34-5.41,19-14.5,29-21.5,13.3-9.41,25.46-20.88,38.26-31.24,7.28-5.89,12.11-13.64,18.64-20,8.36-8.18,16.72-16.41,24.88-24.79,11.13-11.43,19-25.39,27.52-38.76,7.83-12.28,17.11-23.55,20.55-38.6,1.2-5.27,1.31-12.66,7.2-17,1.33-1,1.91-4.94-.39-7a3.25,3.25,0,0,0-3.78,1.14c-7.71,8-15.53,15.85-23.26,23.82a304.92,304.92,0,0,1-31.52,28.14c-8.27,6.44-16,13.67-24.47,19.77-4.95,3.55-9.2,8.37-14.39,11-10.33,5.16-18.69,13-28.27,19-7.77,4.94-15.32,10.34-23.93,13.39-6.4,2.27-11.48,5.82-16.54,10.06-3.86,3.23-8.45,5.66-12.92,8.05-8.76,4.69-17.61,9.19-26.51,13.59-8.26,4.08-16.36,8.75-25,11.68-10,3.35-18.43,9.69-28.57,12.69-6.39,1.89-12,6.68-18.74,7.5-7.75.93-14.78,4.17-21.68,6.87-10.91,4.28-22.16,8.07-33,12.18-13,4.88-27.46,6.39-41.08,10.62-8,2.5-16.82,3-25.23,4.74-18.83,3.94-38,7.35-57,9.8-22.07,2.84-44.49,5-66.87,5.71-18.48.59-37,.19-55.49.25-9.19,0-12.18,4.27-7.45,12.27,2.71,4.6,2.7,9.69,4.67,13.92,3.59,7.67,2.83,16.49,6.23,23.44,6.88,14,8.6,29.4,11.72,44,3.73,17.47,4.89,36,5.28,54.08.62,29.5,4,59.09-2.77,88.63-2.89,12.53,1,26.62-1.84,39.17-3.26,14.37-8.54,28.28-9.46,43.2a5.93,5.93,0,0,1-.92,3c-6.17,8.24-4.45,18.79-8.19,28-3.27,8.07-4.37,18.18-7.38,26.19-4.31,11.44-7.88,23.63-14.4,34.32-1.06,1.74-3.31,3.87-2.92,5.22,2.91,10.13-4.35,17.41-8,24.91-7.31,15.16-16.24,29.57-23.24,45-4.53,10-10.43,19.44-13.75,29.77-1.57,4.88-7,8.69-6,12.8,2.89,12.27-9.2,20.54-7.2,33.07.78,4.93-.79,11,.79,17,3.45,13,11.1,19.64,24.64,19.94,13,.28,24.79-4.35,37-7.56,7.45-2,13.26-8.73,21.79-7.12a3,3,0,0,0,2.14-.82c9.76-9.24,23.87-9.55,34.7-17.49,8.3-6.09,19-9.53,28.6-14.12,7.44-3.55,13.36-9.93,21.43-11.7,6.87-1.51,12.59-4.89,18.6-8.11,11.09-6,21.9-13.43,33.81-16.57,14.62-3.86,29.5-8.43,45.34-6.77,10.76,1.12,18.5,5.57,25.49,13.63,3.27,3.76,1,9.18,4.6,11.31,4.76,2.79,4.33,6.77,4.57,10.93,1.33,23.19-3,45.47-9.34,67.73-3.56,12.61-7.19,25.21-10.64,37.86-1,3.79-5.11,5.42-5,9.55.36,12.83-9,22.32-11.9,34.37-3.91,16-12,31-19.22,46-2.8,5.85-4.4,12.15-8.11,17.77-4.15,6.3-6.34,13.76-10.19,20.52-5.42,9.51-9.83,20-14.9,30s-10.65,20-15.23,30a433.05,433.05,0,0,1-21.21,40.73C1139.87,1647.78,1134.34,1653.22,1139.52,1660.72ZM517,502.11c11.75,3.76,22.1,10.88,34.31,13.31a16.07,16.07,0,0,1,5.91,2.26c8.84,6.16,19.5,8.13,29,12.81,8.91,4.38,18.67,7,27,12.8,4.2,2.92,9.4,5.63,13.62,6.54,10.58,2.29,18.31,9.11,27,14.15,9.47,5.52,19.18,10.64,28.65,16.17,11.9,7,23.77,13.9,35.39,21.32,2.47,1.57,1,5.25,4.48,6,10.77,2.31,17.53,11.36,26.78,16.33,6.67,3.59,10.37,11.57,18.58,13.27.71.14,1.45,1.51,1.67,2.43,1.23,5.17,5.53,6.72,9.71,8.38a30.8,30.8,0,0,1,7.78,5c7.5,6,10.26,15.67,18.55,21.13,8.74,5.76,15,14.62,21.11,22.93,4.05,5.48,10.32,7.34,14.37,12.5,6.22,7.94,10.43,17.37,16.65,24.84a229.35,229.35,0,0,1,26.88,40.15,291.31,291.31,0,0,1,21.37,53c1.09,3.7,3.61,6.19,4.87,9.7,4.77,13.18,5.77,27.23,8.23,40.68,2.65,14.48,5.08,29.46,5.84,44.36,1,18.29.82,36.55-3.09,54.74-2.06,9.56,1.05,20.64-2.34,29.41-5.86,15.16-.94,31.71-8.35,46.43-2.1,4.17-2.57,9.68-3.59,14.48-1.34,6.33-7.11,11.11-6.34,17.4,1.12,9.17-3.32,16.91-7,23.74-8.17,15.11-11.87,31.69-17.54,47.48A155,155,0,0,1,864,1182.45c-5.88,9.88-8.37,20.82-13.72,30.64-3.33,6.11-4.07,13.21-6.8,19.44-3.67,8.39-8.85,16.11-13.2,24.22-5.47,10.22-10.43,20.74-16.24,30.77-4.47,7.7-11.42,13.68-15.38,22-1.59,3.33.94,6.15-1.76,10.13-4,6-8,12.29-11.86,18.55-10.16,16.53-20.13,33.18-30.23,49.75-8.47,13.91-16.07,28.29-25.39,41.75-5.57,8-12.07,15.47-16,25.14-4.26,10.56-12.57,19.5-19.21,29.09-4,5.7-7.29,12.2-12.4,16.6-3.2,2.75-5.07,5.16-5.31,8.88-.25,3.9-1.1,7-4.49,9.59s-3.32,7.65-.68,9.26c8.12,4.94,14.06,12.57,22.15,17.22,6.14,3.53,12.24,7.07,16.31,12.76,4.49,6.28,12.08,7.8,17.44,12.74,1.49,1.37,6.5,1.55,8.23-3.43,3.38-9.71,11-17,16.06-25.91A86.65,86.65,0,0,1,765,1523.8c6.09-6.1,10.94-13.7,15.48-21.32a249.87,249.87,0,0,1,22.6-31.13c5.76-6.94,11.79-13.79,16.43-21.45,2.28-3.78,4-7.69,7.21-11,4.66-4.83,9.47-9.83,12.75-15.6,5.69-10,13-18.92,19.86-27.91,5.76-7.49,9.6-16.06,15.69-23.49,6.88-8.38,12.74-18.11,18.91-27.33,5.26-7.84,12.48-14.85,16.17-23.07,8.47-18.84,22.32-34.17,31.5-52.51,4.38-8.76,8.56-17.82,14.49-26.08,6.5-9.06,13.28-18.33,17.43-29.05,3.18-8.22,7.84-15.77,11.94-23.55,6.37-12.11,10.57-25.37,15.65-38.16,4.93-12.43,8.55-25.3,14.51-37.41,5.22-10.62,6.46-22.76,10.25-34.06a202,202,0,0,0,9.13-41.74c1.86-17,5-34,5.85-51.13a365.52,365.52,0,0,0-4.29-77.79c-1.81-10.93-4.71-21.56-6.88-32.36-2.06-10.23-5.54-20.38-8-30.52a99.22,99.22,0,0,0-7-20.38c-6.57-13.14-10.57-27.34-17.87-40.18-4.26-7.49-6.67-17-11.68-23.17-9-11-14-24.47-23.92-34.82-12-12.52-19.76-28.79-33.92-39.62-3.85-3-8.21-5.92-10.65-9.92-8.77-14.42-23.69-22.17-35.35-33.4-7-6.71-16-11.36-24.21-16.81-14.73-9.82-27.25-22.75-44.43-29.23a45.4,45.4,0,0,1-11.3-6.31c-9-6.93-19.59-11.8-29.66-16.64-7.87-3.78-16.48-6.18-24.64-10.41a199,199,0,0,0-27-11.86c-5.09-1.74-10.85-2.67-15.28-5.45-13.76-8.63-29.84-11-44.44-17.42-7.11-3.11-15.6-2.89-23.46-5-8.59-2.35-17.19-7.63-26.89-5.89a5.14,5.14,0,0,1-3.82-.79c-7.59-6.91-17.53-7.73-26.65-8.75-13.26-1.48-25.52-8.68-39.32-6.46-.87.14-2-.73-2.88-1.26C530.73,499.59,524,500.51,517,502.11Zm640,80.64c4.28-17.12-3.71-34.82-11.2-51.62-8.43-18.88-24.7-32.55-41.08-44.74-9.53-7.1-22.07-10-33.88-11-10.79-.91-21.6-1.7-32.85,4.26-7,3.72-15.48,5.39-23.12,10-17.82,10.78-27.2,28.4-39.36,43.77-7.78,9.82-7,23.07-8.49,34.11-3.07,22.11-1.52,44.71,8.11,66.43,6.18,13.92,15.27,25.26,24.07,37,1.87,2.49,1.8,6.1,4.89,7.66,13.57,6.88,25.7,16.62,41.94,17.82,24.57,1.82,47.88-1.77,67.94-16.42,15.34-11.2,26.26-26.44,33.88-44.18,2.44-5.71,2-12.32,5.51-17.1,3.18-4.29,3.52-8.64,3.61-13.33C1157.15,598.7,1157.06,592,1157.06,582.75Zm572.13-276.14a189.81,189.81,0,0,0-30.58,21.5c-6.92,5.93-15.62,12.8-25.84,15.39-8.32,2.11-15.2,8-23.62,10.16-11.52,3-22.93,8.59-34.76.82-1-.63-2.62-.2-4-.27a15,15,0,0,1-7.21-2.45c-8-4.75-16.92-7.94-24.8-12.84-6.07-3.78-13.57-6-18.22-10.94-6.74-7.1-15-11.84-22.31-17.93-.6-.5-2.11-.37-3,0a1.81,1.81,0,0,0-.55,2.77c5.51,4.43,6.85,11.71,12.12,16.61s9.18,11.67,12.85,18.08c4.91,8.58,7.81,18.54,13.75,26.23,9.41,12.2,8.59,26,7.37,39.15-1.79,19.26-12.18,36.13-22.38,51.77-8.61,13.2-19.44,25.17-27.4,39.39,7.24-7.4,16.46-11.92,24.5-18.26a201.32,201.32,0,0,1,32.71-20.75c6.21-3.18,10.65-9.7,18.41-9.92,12.83-.37,25.64-2.33,38.5-.3,2.89.46,6.4-.39,8.67,1,13.9,8.23,28.84,14.52,42.11,24,5.55,4,9.12,11.53,16.62,11.93,5.2.28,7.76,3.16,10.14,6.55a27.84,27.84,0,0,0,5.42,5.5c-2.53-8.49-8.36-13.86-12.94-20.11-2.55-3.47-7.31-4.49-9-8.66-5.73-14.13-17.26-24.84-22.23-39.74-3.15-9.46-7.26-18.76-8.37-28.59-1.39-12.37,4.33-23.35,9.68-34.25,7.3-14.87,16.41-28.62,25.74-42.21C1716.3,322,1723,314.47,1729.19,306.61Zm-338.94,238c6.78-7.67,7.29-7.65,7.91-22.88.67-16.24,14.59-35.53,32-39.67,8.2-2,16.47-1,24.56-2.55,2.52-.48,5.86,0,6.06-3.76.23-4.31-3.34-4.22-6.19-4.49-9.76-.95-19.3-2.2-28.86-5.15-13-4-28.4-19.93-27.53-33.6.44-6.85-1.26-13.81-1.61-20.73-.23-4.4-2.2-5.45-6.41-4.25-2,11.22-2.06,22.66-6.56,33.88-5,12.37-11.69,20.51-24.52,23.94-9.46,2.53-18.86,5.08-28.65,6.25-5.94.72-6,1.49-5.09,7.67,11.34.57,22.87.88,33.53,5.48,7.16,3.08,15.62,5.85,19.11,12.93,5,10.11,11.08,20.21,10.65,32.36C1388.52,534.46,1389.6,538.94,1390.25,544.59Zm-236.71-217.7c3.39,2.6,6.72,2.21,9.87,2.54,6.07.64,11.7.76,18,3.53,11.37,5,16.23,12.2,16.26,23.9,0,6.69,1.92,12.55,8.33,17.06,2.55-9.95-.57-20.1,5.84-28.82,6.6-9,12.55-17.37,25.69-15.74,5.54.69,11.58.63,17.68-3.47a160.37,160.37,0,0,1-28.24-6.26c-5.52-1.69-11.43-4.65-13.89-9-3.87-6.87-7-14.69-6.13-23.33.36-3.47.82-7.51-3.54-11.19,1.7,7.55-5.55,10.91-5.49,17.42.14,15.2-9,22.66-22.27,27.88C1168.51,324.19,1160.74,322.6,1153.54,326.89Z" transform="translate(-5.14)"/><path class="cls-2" d="M603.41,1670.94c-2.79-6.6-9.39-9.49-14.3-13.8-11.94-10.48-25.48-18.91-36.58-30.68-10.72-11.37-23.34-21-34.89-31.57-8.24-7.56-16.59-15.46-23.61-24.58-8-10.41-18.16-19.2-26.13-29.64-5.2-6.82-10.46-13.82-15.71-20.51-5.06-6.45-8.95-14.39-15.52-19.18-4.7-3.44-4.57-8.69-7.79-12.7-10.07-12.53-18.27-26.61-26.6-40.53-6.93-11.59-15.12-22.63-22.2-34.24-4.64-7.61-8-16-11.93-24-6-12.25-10.46-25.24-16.07-37.55a512.45,512.45,0,0,1-19.68-49.77c-4-11.81-6.27-24.18-10.55-35.51-7.47-19.79-9.69-40.83-17.18-60.45-.92-2.42-.83-5.28-1-7.94-1.56-22.74-4.68-45.44-7.4-67.92-5-41.52-3.76-82.92-1.95-124.09,1-22.26.07-45.31,5.62-67.32,2.5-9.92,1.88-20.06,4.06-29.8,2-9,3.6-18,7.16-26.93,2.84-7.11,6.16-15,6.47-23.44.34-9.23,5.38-17.56,7.41-26.62.75-3.38,1.79-7,2.83-10.49,2.42-8.09,5.28-16,8.11-24,1.8-5.07,3.16-10.26,6.4-14.85,1.6-2.27,1.26-5.83-4.49-8.89,7.44.93,10.08-1.21,9.91-6.53-.12-3.54,1.46-6.6,3.66-9.5,3.56-4.71,7.69-9.31,7.21-15.91-.33-4.56,6.23-3.89,5.89-7-.35.58-2.49,2.51-2.14,3.73,4.09,14.24-2.5,27.53-5.68,40.3s-2.84,26-7.49,38.3a6.86,6.86,0,0,0-.69,2.28c.27,20.83-7.56,40.77-6.29,61.83.68,11.26-1.86,22.8-2.52,33.91-.76,12.92-3.55,26.74,1.1,40,1.46,4.14,1.08,9,1.21,13.52.47,16.07-.63,32.35,1.6,48.16,2.15,15.27,3.1,30.64,5.26,45.79,2.11,14.82,6.23,29.55,9.69,44.19,4.85,20.52,9.62,41.19,17.62,61,6.25,15.48,9.72,32.12,16.61,47.48,4.67,10.42,8.49,21.19,13.27,31.6,4.25,9.24,6.62,19.78,11.88,28.64,7.75,13.06,13.08,27.28,20.64,40.33,3.49,6,8.18,11.29,10.32,18.17.66,2.12,3.39,2.35,5.63,2.85-.61,2.74-.67,5.15,1.17,7.86,13.12,19.34,25.4,39.29,39.11,58.2,10.67,14.71,23.57,27.79,34.45,42.36a292.27,292.27,0,0,0,26.4,30.61c11.19,11.32,22.64,22.76,34.82,33.26,13.25,11.43,26.27,23.07,40.15,33.85,11.17,8.67,23.46,15.94,33.81,25.5,11,10.15,24,17.33,36.1,25.73,8.72,6.07,18.82,11,28,16.74,10.74,6.65,21.4,14.25,32.95,18.27,9.62,3.35,17.15,10.5,27.19,12.36a10.56,10.56,0,0,1,5.56,2.83c7.56,7.28,18.37,7.72,27.12,12.43,9.78,5.28,20.3,8.26,30.69,11.74,12.57,4.22,24.34,11.18,37.63,12.65,6.65.73,11.7,4.48,17.75,6.22,16.44,4.73,33.64,6.68,49.5,13.47a3.94,3.94,0,0,0,1.57.27c19.38-.38,37.45,6.95,56.3,9.54,9,1.23,18.26-.18,27.16,2.18,23.44,6.22,47.33,2.33,71,3.18,18.47.67,37-.17,55.48.11,26.16.39,51.51-5.92,77.24-9,13.66-1.64,27.14-4.73,40.71-6.86,8.78-1.38,19.6-.78,27.34-8,.82-.77,2.53-.77,3.83-.78,11.85-.06,22.57-3.73,32.92-9.34,4.07-2.2,9.25-2.48,13.77-3.39,8.76-1.77,17-5.33,25-8.33s16.72-3.35,24.59-8.26c7.15-4.47,16.12-6.86,24-10.82,12.57-6.32,24.92-13.79,37.83-18.44,9.31-3.35,16.87-9.26,25.93-12.74,10.16-3.9,18.39-12.54,28.14-17.9s19-11.14,27.82-17.23c9.81-6.73,21.15-11.34,29.55-20.33,7.26-7.77,17-12.6,25.14-19.35,6-5,11.12-11,16.72-16.47.66-.65,1.89-.71,3-1.08,3.38,6-2.42,8.37-4.71,11.12-12.76,15.33-27.3,29-40.11,44.46-8.72,10.51-18.36,21.29-31.06,28.29-4.15,2.29-7.69,6.59-11,10.07-10.27,10.93-22.87,18.92-34,28.69-9,7.87-18.42,15.68-29.37,21.65-7.36,4-14.39,9.7-21.57,14.62-7.53,5.17-15.45,9.8-23.25,14.58-9.62,5.9-19.15,12-29,17.47-8.21,4.57-17.28,7.69-25.13,12.76-8.32,5.36-18,7.13-26.68,11.75-5.71,3-10.69,9.32-18.79,8.41-4.73-.53-8.45,3.9-12.61,5.86-11.26,5.31-23.46,7.86-34.86,12.87-6.8,3-16.2,4.11-22.65,7.38-8.71,4.41-19.46.29-26.56,8.17-.7.78-2.55.62-3.88.69-11.67.6-22.59,4.13-33.32,8.42a4.82,4.82,0,0,1-1.55.41c-14.69.48-28.54,6.56-43.37,6.36-7.09-.09-14.41-.74-20.74,3.94a7.73,7.73,0,0,1-4.63,1c-35.55-1.51-70.67,7.75-106.24,4.52-19.88-1.8-39.68-3.83-59.67-4.68-19.26-.83-38.53-4.14-57.4-8.88a22.37,22.37,0,0,0-4.77-.56c-13.89-.45-26.8-5-39.72-9.45a12.22,12.22,0,0,0-4.74-.57c-11.63.79-21.79-3-31.17-9.58-1-.69-2.58-.57-3.9-.67-15-1.16-28.06-7.55-41.49-13.65-6.71-3-15-2.75-21.69-6.84-8.92-5.43-19.21-7.85-28.2-13.54-4-2.53-10.08-4-14.32-6.61-11.19-6.89-24.51-8.38-35.39-16.91A163.71,163.71,0,0,0,655,1701.3c-.56-3.48,1.74-8.37-2.72-10a52.06,52.06,0,0,1-18.41-12.09c-6.46-6.28-15.67-7.5-23.07-12.18-2.18-1.37-7.35-2.37-7.2,3.75Z" transform="translate(-5.14)"/><path class="cls-3" d="M740.45,124.33l7.84-.45c2.1,1.78,4,1.36,6.53.37a131.5,131.5,0,0,1,17.26-5c9.74-2.26,19.76-1.51,29.73-3.9,19.11-4.57,39.17-4.18,58.69-5.72,35.28-2.78,71-4,106.36,2.36,15.33,2.78,31,.12,46.38,2.79,16.28,2.81,31.85,9.32,48.65,9.33a2.45,2.45,0,0,1,1.54.33c7.22,6.86,16.15,3.15,24.33,4l3.14.27c1.38,7.86,7.35,3.53,11.4,4.28l7.91.51c.52,5.6,4.93,4.86,8.5,4.93,9.91.18,18.71,4.87,28.18,6.93A162.17,162.17,0,0,1,1184,158.89c7.94,3.94,16.7,4.15,24.64,8.37,5.54,2.94,11.45,8.11,19,6.63l2.48.36c4.49,6.29,11.18,8.33,18.34,9.47l3,.49c-.51,3.18,1.51,3.65,4,4.7a240.36,240.36,0,0,1,26.79,13.34c13,7.51,26.51,14.24,39.35,22,6.69,4.07,13.77,7.8,19.88,12.56,14.54,11.37,30.83,20.15,45.34,31.57,2.82,2.22,5.86,6.61,10.9,5.53-.07,3.35,1,5.56,4.93,4.93,7.77.15,10.48,7.36,15.61,11.2.06,1.61.06,3.35,1.8,4.11,5.14,2.27,4.29,5.85,2.29,9.74l-4.65-.87c-.88-2-2.56-2.67-4.62-2.62l-.39.27.36-.31c0-3,0-6.22-4.21-6.18-10.94.1-16.61-10.19-26.16-13.07-7.84-2.36-14-9.55-23.13-8.57a1.28,1.28,0,0,0-.68-.69c-10-10-23.29-13.51-36.09-18l0,0c0-3.33-2-4.45-5-4.6-5-.25-9.89-.66-14.83-1a2.44,2.44,0,0,0-.33-.23c.39-2.74-1.07-4.16-3.57-4.15-6.73,0-11.38-3.51-15.48-8.32-.79-.93-2.25-2-3.3-1.92-8.08.8-15.29-3-21.94-6-7.22-3.22-14.81-4.57-22.09-6.75-11-3.3-21.44-10.31-33.85-7.5l-.46.35.47-.33c.11-3.64-2.12-4.42-5.19-4.42-4.81,0-9.62-.14-14.43-.22-10.35.86-18.84-7.68-29.39-5.79-.29-1.95-.91-4-3.22-3.91-6.36.35-12.59-2.21-19-.7l-3.76.1c-.51-2.71-2-4.2-4.9-4.24-9.66-.14-19-3.77-28.34-4.25-33-1.7-65.55-8.57-98.76-6.79-11.76.64-23.58.41-35.36.17-23.72-.47-46.78,7.71-70.66,5.12-2.49-.27-5.21,1-7.73,1.88-11.7,3.92-23.17,8.64-35.92,8.1a83.81,83.81,0,0,0-37.91,7.37l-11.35,3c-3.1,0-6.2-.09-9.29,0-3.26.11-7.08-.52-7.51,4.46l-4.16.24c-8.24-2-15,2.58-22.17,5.09-6.74,2.35-13.79,4-20.24,7-11.7,5.39-24.2,8.44-36.25,12.72-5.34,1.89-10.54,3-14.4,7.39l-3.53,1.46c-4.63,2.76-12.43-1.71-14.67,6.46l.45.33-.44-.35c-5.39-.4-10.14.91-15.2,3.26-9.07,4.22-16.88,10.46-25.87,14.74-3.94,1.86-10.29.23-11.28,7-.87.1-1.75.2-2.62.32a11.93,11.93,0,0,0-6.66,1.92c-6.76,4-13.49,9.08-20.9,10.73-10.67,2.37-17.88,10.25-27.44,14.42-13.82,6-26,16.15-38.28,25.31-11.94,8.91-25.1,16.22-35.61,27.1-1.86,1.92-3,3.36-3,5.87l-.12.06c-5.71.53-9.14,3.44-9.71,9.33l-.2.18c-3.93.11-7.63.11-11.39,2.39-12.76,7.74-20.31,21-32.28,29.58-.77.56-.59,2.46-.85,3.73l.29.6-.32-.58c-1.87-.19-3.67-.23-5.26,1.08-12.74,10.5-23.13,23.28-34.21,35.37-.73.81-.49,2.5-.7,3.78-1.05.11-2.49-.2-3.08.37-7.2,6.95-15.54,13.2-20.91,21.38-3.33,5.07-10.16,7.37-10.83,14.19-.18,1.35-.36,2.69-.53,4-8.19,2.42-10.09,10.52-14.64,16.21-.17.88-.33,1.76-.49,2.64-7.53,5.48-12.76,13.11-18.69,20.08-4.61,5.42-9.95,10.44-10.68,18.15-.24,1.3-.48,2.59-.71,3.89-.95.43-2.26.6-2.81,1.33-8.69,11.64-16,24.16-24.85,35.82-10.59,14-18.63,30.11-26.73,45.85-8.58,16.68-16.53,33.75-23.5,51.16-2.7,6.73-8.33,12.62-7.51,20.67-3,2.68-3.72,6.43-4.72,10.06-4.92,4.5-6.37,11.13-7.74,16.83-2.05,8.57-10.25,15.3-7.5,25.15-.07,1.06-.13,2.11-.19,3.16-3.48.06-3.86,2.43-4.76,5.23-2.53,8-3.53,16.61-6.35,24-4.31,11.32-3.29,23.49-8.24,34.59-2,4.54-5.59,9.89-4.71,14.83,2.35,13.26-4.72,24.81-8,36.22-3.69,13-3.35,26.41-6.59,39.39-4.28,17.21-5.1,36.27-5.23,54.19-.28,40.79-5.61,81.78,3.12,122.55,3.41,15.93,1.32,32.62,4.19,49.2s7.74,33.12,6.82,50.27a6.32,6.32,0,0,0,.91,3.05c5.53,10.41,3.31,22.81,8.89,33.48,1.78,3.41,4.76,6.89,5,11.37,1,16.56,6.64,31.72,13.83,46.54,1.86,3.84,1.95,9.14-.81,14.43a79.7,79.7,0,0,1-12.95-22.26c-2-5.06-2.79-12.4-9.46-15.13-.11-1-.23-2.1-.34-3.15,1.24-4.43-1-6.57-5-7.65,1-6.67-4.38-11.23-6.7-16.44-2.46-5.5-3.89-11.9-7.91-16.8a30.54,30.54,0,0,0-2.52-13.09c-4.79-10.56-9.8-21.25-12.62-32.42-3.29-13-8.27-25.4-11.58-38.4-3.68-14.44-6.47-29-9.3-43.56-.63-3.25.69-7.34-4.51-7.86,0-.81,0-1.63-.05-2.44-.08-5-.11-10.09-.24-15.13-.06-2.65-1.56-3.64-4.11-3.21l-.17-.15c-.1-5-.21-9.9-.28-14.85,0-3.18-1-5.67-4.56-6.29a.71.71,0,0,0,.07-1.09c0-2.39.25-4.8.09-7.18-1.55-23-2.32-46-4-68.93-2.63-35.09-4.56-70.71,2.65-106.08,3-14.65.69-30.38.79-45.62.1-1.6.19-3.19.28-4.79,3.35-1.18,3.87-4.16,4-7,.34-6.25.34-12.53.47-18.8.14-1.55.28-3.1.41-4.65,3.74.55,4.35-1.8,4.37-4.7,0-4.92.08-9.83.12-14.74,0-1.41.11-2.81.17-4.22,3.81-.44,4.27-3,4.41-6.25.18-4.2-1.17-9.13,1.44-12.46,5-6.37,3.63-13.41,3.79-20.39.11-1.9.22-3.79.32-5.68,3.41-.77,4.91-2.92,4.65-6.39a17.5,17.5,0,0,1,1.71-9.37c6.29-12.24,8.78-25.82,13-38.73,1.74-5.35,6-9.79,5.79-16-.19-4.51,1.5-8.67,3.91-12.66,5.11-8.45,7.51-18.17,11.49-27.15,3.63-8.17,7.08-17,11.11-24.75,6.15-11.88,11.53-24.22,18-36,6.67-12.08,14-23.68,21.29-35.32,5.29-8.42,7-18.87,15.16-25.68,5.67-4.75,9.71-10.68,10.54-18.33,0-8,6.79-12.17,10.82-17.7,2.46-3.39,5.45-6.58,7.9-10.11,5.49-1.56,8.51-5.52,10.35-10.64h0c1-.14,1.57-.66,1.36-1.76,4.88-3.21,3.67-10.46,8.91-13.44.78-.12,2,.05,2.29-.39,6.91-10.35,16.3-18.51,24.31-27.86,3.46-4,8.06-7.48,9.68-13,.21-.49.43-1,.64-1.48,5.41-1.13,9.39-4.5,12.92-8.47,4-4.48,7.59-9.35,11.79-13.62,11.7-11.87,25.62-21.34,36.58-34.06,9.34-10.84,23.11-16.21,33.17-26.17,3.17-3.14,7.94-4.94,9.05-10a.76.76,0,0,0,.91-.35c1-.07,2.47.29,3.1-.26,10.16-8.77,22.84-13.62,32.95-22.93,11-10.07,25.89-15.18,38-24.21,6.05-4.51,12.76-7.53,19.93-10.21,7.8-2.91,14.88-8,21.78-12.91,4.83-3.41,12.36-2.92,14.62-10l-.22-.52.29.48c6.32,2.48,9.74-3.61,14.7-5.24,10.12-3.32,19.86-8,29.57-12.35,9.46-4.23,18.89-9.58,28.8-11.08,13.4-2,23.43-11.33,36.74-13.47,11.17-1.8,21.54-8,33.35-8.12,3.28,0,7.45.73,7.52-4.7l3.07-.3c4.59-.73,10.21,1.72,13.11-4.25l3-.44c4.52-.17,9.12.08,13.54-.69C735.64,127.8,740,129.35,740.45,124.33Z" transform="translate(-5.14)"/><path class="cls-4" d="M1139.52,1660.72c-5.18-7.5.35-12.94,2.44-16.48a433.05,433.05,0,0,0,21.21-40.73c4.58-10,10.13-20,15.23-30s9.48-20.45,14.9-30c3.85-6.76,6-14.22,10.19-20.52,3.71-5.62,5.31-11.92,8.11-17.77,7.18-15,15.31-30.07,19.22-46,3-12,12.26-21.54,11.9-34.37-.12-4.13,4-5.76,5-9.55,3.45-12.65,7.08-25.25,10.64-37.86,6.3-22.26,10.67-44.54,9.34-67.73-.24-4.16.19-8.14-4.57-10.93-3.65-2.13-1.33-7.55-4.6-11.31-7-8.06-14.73-12.51-25.49-13.63-15.84-1.66-30.72,2.91-45.34,6.77-11.91,3.14-22.72,10.62-33.81,16.57-6,3.22-11.73,6.6-18.6,8.11-8.07,1.77-14,8.15-21.43,11.7-9.62,4.59-20.3,8-28.6,14.12-10.83,7.94-24.94,8.25-34.7,17.49a3,3,0,0,1-2.14.82c-8.53-1.61-14.34,5.16-21.79,7.12-12.24,3.21-24.07,7.84-37,7.56-13.54-.3-21.19-6.94-24.64-19.94-1.58-6,0-12.06-.79-17-2-12.53,10.09-20.8,7.2-33.07-1-4.11,4.47-7.92,6-12.8,3.32-10.33,9.22-19.81,13.75-29.77,7-15.4,15.93-29.81,23.24-45,3.62-7.5,10.88-14.78,8-24.91-.39-1.35,1.86-3.48,2.92-5.22,6.52-10.69,10.09-22.88,14.4-34.32,3-8,4.11-18.12,7.38-26.19,3.74-9.23,2-19.78,8.19-28a5.93,5.93,0,0,0,.92-3c.92-14.92,6.2-28.83,9.46-43.2,2.85-12.55-1.05-26.64,1.84-39.17,6.82-29.54,3.39-59.13,2.77-88.63-.39-18-1.55-36.61-5.28-54.08-3.12-14.57-4.84-29.94-11.72-44-3.4-7-2.64-15.77-6.23-23.44-2-4.23-2-9.32-4.67-13.92-4.73-8-1.74-12.24,7.45-12.27,18.5-.06,37,.34,55.49-.25,22.38-.72,44.8-2.87,66.87-5.71,19-2.45,38.18-5.86,57-9.8,8.41-1.76,17.19-2.24,25.23-4.74,13.62-4.23,28.13-5.74,41.08-10.62,10.88-4.11,22.13-7.9,33-12.18,6.9-2.7,13.93-5.94,21.68-6.87,6.72-.82,12.35-5.61,18.74-7.5,10.14-3,18.61-9.34,28.57-12.69,8.67-2.93,16.77-7.6,25-11.68,8.9-4.4,17.75-8.9,26.51-13.59,4.47-2.39,9.06-4.82,12.92-8.05,5.06-4.24,10.14-7.79,16.54-10.06,8.61-3.05,16.16-8.45,23.93-13.39,9.58-6.09,17.94-13.88,28.27-19,5.19-2.59,9.44-7.41,14.39-11,8.5-6.1,16.2-13.33,24.47-19.77a304.92,304.92,0,0,0,31.52-28.14c7.73-8,15.55-15.84,23.26-23.82a3.25,3.25,0,0,1,3.78-1.14c2.3,2,1.72,6,.39,7-5.89,4.31-6,11.7-7.2,17-3.44,15.05-12.72,26.32-20.55,38.6-8.52,13.37-16.39,27.33-27.52,38.76-8.16,8.38-16.52,16.61-24.88,24.79-6.53,6.39-11.36,14.14-18.64,20-12.8,10.36-25,21.83-38.26,31.24-9.9,7-18.61,16.09-29,21.5-15,7.83-27.11,19.29-41.51,27.77-17.7,10.42-35.66,20.57-52.68,32.27-9.87,6.78-22,10.27-32.18,16.67-9.64,6-19.75,11.34-28.87,18.4-6.22,4.81-13.88,8.26-21.06,11.64-11.19,5.26-21.16,12.49-32.27,17.8-12,5.72-21.73,15.18-33.29,21.43-6.93,3.74-14,7.28-20.82,11.29-8.39,4.93-14.28,11.15-19.3,19.78-6.17,10.62-13.72,20.91-19.28,31.62s-14,21.19-14.35,34.4c-.14,4.4-4,6.79-5.47,10.83-4.32,12-5.92,25.07-12.73,36.2a4,4,0,0,0-.74,2.26c1.17,11.16-4.45,21.22-7.16,31.28-2.91,10.84-.42,22.81-5.07,31.73-6.51,12.5-1.24,25-4.69,36.76s-3.2,23.93-7,35.59c-3.28,10-3.86,20.9,3.78,29.83,2.22,2.59,5,5.21,9.19,5.63,15.52,1.54,29.87-2.44,44.34-7.5,7.61-2.65,15.33-5.35,23.27-7.38a125.32,125.32,0,0,0,23.31-8.08c5.27-2.53,11.29-3.74,16.94-5.69,9.93-3.43,20.86-3.85,30.06-9.74a1.46,1.46,0,0,1,.78-.15c17.52-.32,34.26-9.29,52-5.69,18.85,3.83,37.82,10,49.37,26.07,9.93,13.83,17.54,29.57,17.08,48.1-.39,15.79,1.73,32.08-1.75,47.24-2.34,10.22-.84,21.8-8.27,31.21-3.13,4-3,10.6-4.52,15.82a187.64,187.64,0,0,1-11.78,31.1c-5.33,10.93-9.78,22.37-16.3,32.76-5,8-8.43,17.13-13,25.17-4.36,7.73-7.07,16.61-13.44,23.55-5.86,6.38-10.59,14-14.66,21.78-5.86,11.13-13.32,21.13-20.33,31.47-9.86,14.53-18.74,29.85-29.83,43.36-6.77,8.25-11.1,17.75-17.16,26.28-4.34,6.09-10,10.38-14.84,15.66-5.82,6.37-10.44,13.58-15.18,20.55-5.6,8.23-13.29,14.82-18.39,22.93-8.09,12.87-21.21,21.76-27.25,35.77C1145.42,1657.55,1140.15,1655.4,1139.52,1660.72Z" transform="translate(-5.14)"/><path class="cls-4" d="M517,502.11c6.94-1.6,13.71-2.52,20.17,1.22.91.53,2,1.4,2.88,1.26,13.8-2.22,26.06,5,39.32,6.46,9.12,1,19.06,1.84,26.65,8.75a5.14,5.14,0,0,0,3.82.79c9.7-1.74,18.3,3.54,26.89,5.89,7.86,2.14,16.35,1.92,23.46,5,14.6,6.38,30.68,8.79,44.44,17.42,4.43,2.78,10.19,3.71,15.28,5.45a199,199,0,0,1,27,11.86c8.16,4.23,16.77,6.63,24.64,10.41,10.07,4.84,20.68,9.71,29.66,16.64a45.4,45.4,0,0,0,11.3,6.31c17.18,6.48,29.7,19.41,44.43,29.23,8.17,5.45,17.24,10.1,24.21,16.81,11.66,11.23,26.58,19,35.35,33.4,2.44,4,6.8,7,10.65,9.92,14.16,10.83,21.9,27.1,33.92,39.62,9.93,10.35,14.93,23.79,23.92,34.82,5,6.15,7.42,15.68,11.68,23.17,7.3,12.84,11.3,27,17.87,40.18a99.22,99.22,0,0,1,7,20.38c2.49,10.14,6,20.29,8,30.52,2.17,10.8,5.07,21.43,6.88,32.36a365.52,365.52,0,0,1,4.29,77.79c-.82,17.12-4,34.09-5.85,51.13a202,202,0,0,1-9.13,41.74c-3.79,11.3-5,23.44-10.25,34.06-6,12.11-9.58,25-14.51,37.41-5.08,12.79-9.28,26-15.65,38.16-4.1,7.78-8.76,15.33-11.94,23.55-4.15,10.72-10.93,20-17.43,29.05-5.93,8.26-10.11,17.32-14.49,26.08-9.18,18.34-23,33.67-31.5,52.51-3.69,8.22-10.91,15.23-16.17,23.07-6.17,9.22-12,19-18.91,27.33-6.09,7.43-9.93,16-15.69,23.49-6.91,9-14.17,17.9-19.86,27.91-3.28,5.77-8.09,10.77-12.75,15.6-3.21,3.32-4.93,7.23-7.21,11-4.64,7.66-10.67,14.51-16.43,21.45a249.87,249.87,0,0,0-22.6,31.13c-4.54,7.62-9.39,15.22-15.48,21.32a86.65,86.65,0,0,0-13.43,17.82c-5.07,8.86-12.68,16.2-16.06,25.91-1.73,5-6.74,4.8-8.23,3.43-5.36-4.94-13-6.46-17.44-12.74-4.07-5.69-10.17-9.23-16.31-12.76-8.09-4.65-14-12.28-22.15-17.22-2.64-1.61-2.56-6.77.68-9.26s4.24-5.69,4.49-9.59c.24-3.72,2.11-6.13,5.31-8.88,5.11-4.4,8.45-10.9,12.4-16.6,6.64-9.59,14.95-18.53,19.21-29.09,3.9-9.67,10.4-17.09,16-25.14,9.32-13.46,16.92-27.84,25.39-41.75,10.1-16.57,20.07-33.22,30.23-49.75,3.85-6.26,7.84-12.58,11.86-18.55,2.7-4,.17-6.8,1.76-10.13,4-8.3,10.91-14.28,15.38-22,5.81-10,10.77-20.55,16.24-30.77,4.35-8.11,9.53-15.83,13.2-24.22,2.73-6.23,3.47-13.33,6.8-19.44,5.35-9.82,7.84-20.76,13.72-30.64a155,155,0,0,0,12.49-26.62c5.67-15.79,9.37-32.37,17.54-47.48,3.7-6.83,8.14-14.57,7-23.74-.77-6.29,5-11.07,6.34-17.4,1-4.8,1.49-10.31,3.59-14.48,7.41-14.72,2.49-31.27,8.35-46.43,3.39-8.77.28-19.85,2.34-29.41,3.91-18.19,4-36.45,3.09-54.74-.76-14.9-3.19-29.88-5.84-44.36-2.46-13.45-3.46-27.5-8.23-40.68-1.26-3.51-3.78-6-4.87-9.7a291.31,291.31,0,0,0-21.37-53,229.35,229.35,0,0,0-26.88-40.15c-6.22-7.47-10.43-16.9-16.65-24.84-4-5.16-10.32-7-14.37-12.5-6.13-8.31-12.37-17.17-21.11-22.93-8.29-5.46-11-15.18-18.55-21.13a30.8,30.8,0,0,0-7.78-5c-4.18-1.66-8.48-3.21-9.71-8.38-.22-.92-1-2.29-1.67-2.43-8.21-1.7-11.91-9.68-18.58-13.27-9.25-5-16-14-26.78-16.33-3.47-.74-2-4.42-4.48-6-11.62-7.42-23.49-14.37-35.39-21.32C673,574.62,663.3,569.5,653.83,564c-8.64-5-16.37-11.86-27-14.15-4.22-.91-9.42-3.62-13.62-6.54-8.32-5.76-18.08-8.42-27-12.8-9.53-4.68-20.19-6.65-29-12.81a16.07,16.07,0,0,0-5.91-2.26C539.12,513,528.77,505.87,517,502.11Z" transform="translate(-5.14)"/><path class="cls-4" d="M1157.06,582.75c0,9.25.09,16,0,22.64-.09,4.69-.43,9-3.61,13.33-3.54,4.78-3.07,11.39-5.51,17.1-7.62,17.74-18.54,33-33.88,44.18-20.06,14.65-43.37,18.24-67.94,16.42-16.24-1.2-28.37-10.94-41.94-17.82-3.09-1.56-3-5.17-4.89-7.66-8.8-11.75-17.89-23.09-24.07-37-9.63-21.72-11.18-44.32-8.11-66.43,1.54-11,.71-24.29,8.49-34.11,12.16-15.37,21.54-33,39.36-43.77,7.64-4.62,16.11-6.29,23.12-10,11.25-6,22.06-5.17,32.85-4.26,11.81,1,24.35,3.94,33.88,11,16.38,12.19,32.65,25.86,41.08,44.74C1153.35,547.93,1161.34,565.63,1157.06,582.75Z" transform="translate(-5.14)"/><path class="cls-2" d="M1729.19,306.61c-6.22,7.86-12.89,15.41-18.55,23.65-9.33,13.59-18.44,27.34-25.74,42.21-5.35,10.9-11.07,21.88-9.68,34.25,1.11,9.83,5.22,19.13,8.37,28.59,5,14.9,16.5,25.61,22.23,39.74,1.7,4.17,6.46,5.19,9,8.66,4.58,6.25,10.41,11.62,12.94,20.11a27.84,27.84,0,0,1-5.42-5.5c-2.38-3.39-4.94-6.27-10.14-6.55-7.5-.4-11.07-7.94-16.62-11.93-13.27-9.53-28.21-15.82-42.11-24-2.27-1.35-5.78-.5-8.67-1-12.86-2-25.67-.07-38.5.3-7.76.22-12.2,6.74-18.41,9.92a201.32,201.32,0,0,0-32.71,20.75c-8,6.34-17.26,10.86-24.5,18.26,8-14.22,18.79-26.19,27.4-39.39,10.2-15.64,20.59-32.51,22.38-51.77,1.22-13.19,2-26.95-7.37-39.15-5.94-7.69-8.84-17.65-13.75-26.23-3.67-6.41-7.54-13.14-12.85-18.08s-6.61-12.18-12.12-16.61a1.81,1.81,0,0,1,.55-2.77c.85-.38,2.36-.51,3,0,7.31,6.09,15.57,10.83,22.31,17.93,4.65,4.92,12.15,7.16,18.22,10.94,7.88,4.9,16.81,8.09,24.8,12.84a15,15,0,0,0,7.21,2.45c1.34.07,3-.36,4,.27,11.83,7.77,23.24,2.19,34.76-.82,8.42-2.2,15.3-8.05,23.62-10.16,10.22-2.59,18.92-9.46,25.84-15.39A189.81,189.81,0,0,1,1729.19,306.61Z" transform="translate(-5.14)"/><path class="cls-4" d="M603.41,1670.94l.21-.19c6.2.12,10.34,4.3,15.28,7.22,9.32,5.51,16.25,15.7,28.55,14.79.95,3.29,1.74,6,2.53,8.8-3.74,9-3.65,19.81-13,26-1.9,1.26-.87,3.52-1.56,5.27a126.84,126.84,0,0,1-10.55,21c-3.06,4.92-6.85,10.28-5.87,17,.75,5.12-2.83,9.27-4.9,13-5.11,9.21-5.91,19.68-8.09,29.19-2.35,10.25-7.82,19.7-7.8,30.93,0,9.38-5.14,18.56-4.23,28.45l-5.51.31c-2.91-.38-3.81-2.23-4.15-5-3.36-27.14-7.28-54.2-5.52-81.72,1.1-17,6.55-33.34,6.25-50.68-.09-5.63,5.06-12.1,6.74-18.73.93-3.64,1.34-7.3,2.19-10.9C596.79,1694,597.6,1681.79,603.41,1670.94Z" transform="translate(-5.14)"/><path class="cls-5" d="M172.25,1262.81c6.67,2.73,7.51,10.07,9.46,15.13a79.7,79.7,0,0,0,12.95,22.26c2.76-5.29,2.67-10.59.81-14.43-7.19-14.82-12.82-30-13.83-46.54-.27-4.48-3.25-8-5-11.37-5.58-10.67-3.36-23.07-8.89-33.48a6.32,6.32,0,0,1-.91-3.05c.92-17.15-4-33.82-6.82-50.27s-.78-33.27-4.19-49.2c-8.73-40.77-3.4-81.76-3.12-122.55.13-17.92.95-37,5.23-54.19,3.24-13,2.9-26.35,6.59-39.39,3.24-11.41,10.31-23,8-36.22-.88-4.94,2.69-10.29,4.71-14.83,5-11.1,3.93-23.27,8.24-34.59,2.82-7.41,3.82-16.06,6.35-24,.9-2.8,1.28-5.17,4.76-5.23,3.25,5.26,1.26,11.75-1.41,14.7-3.56,3.94-3,7.52-3.35,11.51s.64,7.9-3.49,10.83c-2.34,1.65-1.27,5-1.36,7.62-.17,5,.34,9.9-3.11,14.45-1.86,2.46-3.85,7.2,1,8.83,7.61,2.58,7.2,8.24,6.88,14.18-.19,3.41.79,6.95-1,10.41-4.1,1-8.27-2.7-12.82.34-.36,9.07-3.58,18.55-6.57,26.77-5.84,16-2.65,32-5,47.84-1.16,7.73-5.27,14.95-3.66,23.24a111.25,111.25,0,0,1,1.72,26.3c-.12,2.69.49,5.91-1.57,7.67-6.28,5.37-4.82,12.41-4.85,19.18,0,13.12.28,26.26-.08,39.38-.43,15.69,2.09,31,4.09,46.46,2.19,17,5.73,34,5.41,51.11-.23,12.84,2.9,24.32,8.7,35.49,2.57,4.95,1.13,10.56,1.1,15.85-.06,12.76,6.1,24,8.33,36.2.23,1.26,1.46,2.56,1.25,3.65-2.16,10.78,6.6,19.49,5.46,30.16-.57,5.39,6.41,7,7.39,11.77,1.27,6.25,2.45,12.54,3.23,18.86.38,3.06.3,5.88,4.08,6.75.67.16,1.76,1.27,1.65,1.54-3.87,9.73,8.42,17.7,3,27.54-13.19.5-16.05-1.26-19.64-13.24a9.61,9.61,0,0,0-3.62-4.92c-2.06-1.71-4.87-3.59-4.84-6.18.13-12.36-9-21.24-11.68-32.5C171,1269.29,169.5,1266,172.25,1262.81Z" transform="translate(-5.14)"/><path class="cls-2" d="M1390.25,544.59c-.65-5.65-1.73-10.13-1.57-14.57.43-12.15-5.65-22.25-10.65-32.36-3.49-7.08-12-9.85-19.11-12.93-10.66-4.6-22.19-4.91-33.53-5.48-1-6.18-.85-6.95,5.09-7.67,9.79-1.17,19.19-3.72,28.65-6.25,12.83-3.43,19.57-11.57,24.52-23.94,4.5-11.22,4.59-22.66,6.56-33.88,4.21-1.2,6.18-.15,6.41,4.25.35,6.92,2.05,13.88,1.61,20.73-.87,13.67,14.58,29.61,27.53,33.6,9.56,3,19.1,4.2,28.86,5.15,2.85.27,6.42.18,6.19,4.49-.2,3.78-3.54,3.28-6.06,3.76-8.09,1.58-16.36.6-24.56,2.55-17.44,4.14-31.36,23.43-32,39.67C1397.54,536.94,1397,536.92,1390.25,544.59Z" transform="translate(-5.14)"/><path class="cls-2" d="M1153.54,326.89c7.2-4.29,15-2.7,22.07-5.48,13.28-5.22,22.41-12.68,22.27-27.88-.06-6.51,7.19-9.87,5.49-17.42,4.36,3.68,3.9,7.72,3.54,11.19-.91,8.64,2.26,16.46,6.13,23.33,2.46,4.35,8.37,7.31,13.89,9a160.37,160.37,0,0,0,28.24,6.26c-6.1,4.1-12.14,4.16-17.68,3.47-13.14-1.63-19.09,6.76-25.69,15.74-6.41,8.72-3.29,18.87-5.84,28.82-6.41-4.51-8.31-10.37-8.33-17.06,0-11.7-4.89-18.87-16.26-23.9-6.26-2.77-11.89-2.89-18-3.53C1160.26,329.1,1156.93,329.49,1153.54,326.89Z" transform="translate(-5.14)"/><path class="cls-5" d="M807.81,205.91a83.81,83.81,0,0,1,37.91-7.37c12.75.54,24.22-4.18,35.92-8.1,2.52-.84,5.24-2.15,7.73-1.88,23.88,2.59,46.94-5.59,70.66-5.12,11.78.24,23.6.47,35.36-.17,33.21-1.78,65.8,5.09,98.76,6.79,9.34.48,18.68,4.11,28.34,4.25,2.94,0,4.39,1.53,4.9,4.24-12.48,8.62-26.24,3.75-37.54-.3-8.78-3.14-16.81-3.49-25.19-3.5-18.86,0-37.16-5.53-56-5-5.89.17-11.81-.33-17.67.08-19.49,1.37-38.94,3.37-58.45,4.44-13.08.71-26.23.21-39.35.33-3.31,0-7.14-1.09-8.86,3.46-.26.68-1.86,1.32-2.74,1.21-14.78-1.77-28.19,7.83-43.13,5.07-3.16-.58-6.35-.57-9,3.24C826.9,211.21,811,209.29,807.81,205.91Z" transform="translate(-5.14)"/><path class="cls-5" d="M1087.76,128.48c-8.18-.86-17.11,2.85-24.33-4a2.45,2.45,0,0,0-1.54-.33c-16.8,0-32.37-6.52-48.65-9.33-15.42-2.67-31,0-46.38-2.79-35.33-6.4-71.08-5.14-106.36-2.36-19.52,1.54-39.58,1.15-58.69,5.72-10,2.39-20,1.64-29.73,3.9a131.5,131.5,0,0,0-17.26,5c-2.57,1-4.43,1.41-6.53-.37,4.75-8.16,13.33-10.43,21.27-10.93,21.13-1.34,41.82-8.15,63.28-5.17,19.51-10.38,40.95-4.66,61.16-5.41,25.47-1,51.29.06,76.94.67,14.23,8.79,30.74.91,44.78,5.45,15.72,5.09,33,2.88,47.6,11.41,5.51,3.21,11.43,2.33,17.24,2.35C1085,122.26,1088,123.38,1087.76,128.48Z" transform="translate(-5.14)"/><path class="cls-5" d="M238.43,458.46c-.83,7.65-4.87,13.58-10.54,18.33-8.13,6.81-9.87,17.26-15.16,25.68-7.3,11.64-14.62,23.24-21.29,35.32-6.5,11.76-11.88,24.1-18,36-4,7.78-7.48,16.58-11.11,24.75-4,9-6.38,18.7-11.49,27.15-2.41,4-4.1,8.15-3.91,12.66.26,6.17-4.05,10.61-5.79,16-4.22,12.91-6.71,26.49-13,38.73a17.5,17.5,0,0,0-1.71,9.37c.26,3.47-1.24,5.62-4.65,6.39-1.36-6.2-1.35-12.14,2.78-17.52a5.42,5.42,0,0,0,1.13-3.68c-1.32-9.38,2.9-16.92,7.77-24.28,2-3.08,2.07-6.53,2.06-10,0-4.88.41-9.59,5.06-12.72,1.52-1,2.95-2.56,2.27-4.73-2.69-8.59,2.58-14.13,7.13-20.3,4.15-5.63,1.26-11-2.81-14.79,1.34-5.92,6.47-3.1,9.39-5.82,5.41-5,4.63-12.52,9.27-17.81,6.95-7.92,4.76-20.68,13.81-28,1.42-1.14,2.15-3.86,2.19-5.86.07-4,1.26-6.75,4.66-9.23,4.72-3.44,6-8.52,5.48-14.49-.42-4.56-1-9.42.56-13.51,4.43-1.44,3.46,3.43,6.6,3.57,1.93-1.72,5.59-3.41,6.11-5.77,1-4.48,4.89-7.84,5.28-11.41.64-5.95,4.56-8.65,7.6-12.46,4.73-5.93,8.38-12.62,13.78-18.14C234,459.67,235.63,458.43,238.43,458.46Z" transform="translate(-5.14)"/><path class="cls-5" d="M102,812.47c-.1,15.24,2.2,31-.79,45.62-7.21,35.37-5.28,71-2.65,106.08,1.71,23,2.48,46,4,68.93.16,2.38-.06,4.79-.09,7.18-5.41,1.33-5.58-2.08-5.56-6,0-10.44,1.8-21.28-.37-31.25-8.56-39.39-2.44-79.15-4.6-118.65-.36-6.6,3.64-12.49,3-18.41-1.76-16.06,2.5-31.71,2-47.6C96.76,814.82,97.18,811.83,102,812.47Z" transform="translate(-5.14)"/><path class="cls-5" d="M477.38,364.34c0-2.51,1.15-3.95,3-5.87,10.51-10.88,23.67-18.19,35.61-27.1,12.29-9.16,24.46-19.27,38.28-25.31,9.56-4.17,16.77-12.05,27.44-14.42,7.41-1.65,14.14-6.72,20.9-10.73a11.93,11.93,0,0,1,6.66-1.92c1.88,6.39-5.1,6.6-7.64,9.52-1.95,2.25-6.83,3.84-10.35,5.22-9.89,3.89-19,8.47-26,16.58-4.91,5.7-12.9,4.68-18.65,9.39C538.82,326.09,529.1,330,522.28,338c-2.27,2.7-7.2,4.2-10.1,4.86-9,2-11.89,10-18,14.61C489.26,361.27,485.09,367.23,477.38,364.34Z" transform="translate(-5.14)"/><path class="cls-5" d="M216.67,705.64c-.82-8,4.81-13.94,7.51-20.67,7-17.41,14.92-34.48,23.5-51.16,8.1-15.74,16.14-31.83,26.73-45.85,8.81-11.66,16.16-24.18,24.85-35.82.55-.73,1.86-.9,2.81-1.33,1.11,9.16.73,18.27.13,27.37-5.65-.12-2.78-6-7.23-7.12-2.14,3-5.16,6.05-6.52,9.68a15.3,15.3,0,0,1-5.63,7.51c-6.39,4.36-9.37,10.28-10.9,17.74-1.19,5.78-4.9,10.3-11.55,10.64a109.32,109.32,0,0,1-15.73,39.1c-6.76,10.3-7.46,23.13-16.5,32.29-2.82,2.85-3.1,9.66-5.38,14.48C221.29,705.62,219.72,706.55,216.67,705.64Z" transform="translate(-5.14)"/><path class="cls-5" d="M1397.67,274c-5,1.08-8.07-3.31-10.89-5.53-14.51-11.42-30.8-20.2-45.34-31.57-6.11-4.76-13.19-8.49-19.88-12.56-12.84-7.8-26.33-14.53-39.35-22a240.36,240.36,0,0,0-26.79-13.34c-2.49-1-4.51-1.52-4-4.7,3.31-3.85,7.33-3.38,10.49-.53,5.16,4.67,11.21,7,17.25,10.13,13,6.64,27.93,9.89,38.69,21.51,6.46,7,15.28,12.55,25.78,13.22,1.69.11,3.63.7,3.85,2.33,1.36,10.08,10,10,16.84,12,5.84,1.74,8.72,6.83,12.45,10.67,5.73,5.91,11.75,11.22,19,15.06C1398.33,270,1398.21,271.76,1397.67,274Z" transform="translate(-5.14)"/><path class="cls-5" d="M700.23,133.93c-.07,5.43-4.24,4.66-7.52,4.7-11.81.13-22.18,6.32-33.35,8.12-13.31,2.14-23.34,11.45-36.74,13.47-9.91,1.5-19.34,6.85-28.8,11.08-9.71,4.34-19.45,9-29.57,12.35-5,1.63-8.38,7.72-14.7,5.24-1.33-10.19-1.24-10.79,8.11-10.12a20.8,20.8,0,0,0,15.82-5.38c6.29-5.38,15.27-3.33,21.78-8.66,8.27-6.78,19.46-7.6,28.69-12.24,6.92-3.48,14.68-5.72,21.44-7.64,9.86-2.81,18.61-7.52,27.94-10.47A48.23,48.23,0,0,1,700.23,133.93Z" transform="translate(-5.14)"/><path class="cls-5" d="M418.19,269.8c-1.11,5-5.88,6.83-9.05,10-10.06,10-23.83,15.33-33.17,26.17-11,12.72-24.88,22.19-36.58,34.06-4.2,4.27-7.8,9.14-11.79,13.62-3.53,4-7.51,7.34-12.92,8.47-2.14-4.63,2.37-7.64,4-10.27,4.39-7.13,10.29-13.82,15.86-19.7a61.07,61.07,0,0,1,16.6-12.47c10.73-5.12,17.9-14.12,24.94-22.6,4.43-5.34,9.71-8.78,15-12a50.63,50.63,0,0,0,11.28-9C406.71,271.26,412.11,269.88,418.19,269.8Z" transform="translate(-5.14)"/><path class="cls-5" d="M549.48,188.93c-2.26,7.08-9.79,6.59-14.62,10-6.9,4.87-14,10-21.78,12.91-7.17,2.68-13.88,5.7-19.93,10.21-12.11,9-27,14.14-38,24.21-10.11,9.31-22.79,14.16-32.95,22.93-.63.55-2.05.19-3.1.26.6-10.1,9.8-11.7,16.28-14.71,4.74-2.19,8.22-5.23,11.85-8.41,8.72-7.63,18.92-13.16,28.16-19.89,12.69-9.26,28-13.49,39.87-24.87C523.64,193.52,535.3,185.49,549.48,188.93Z" transform="translate(-5.14)"/><path class="cls-5" d="M111.79,1083.44c5.2.52,3.88,4.61,4.51,7.86,2.83,14.57,5.62,29.12,9.3,43.56,3.31,13,8.29,25.41,11.58,38.4,2.82,11.17,7.83,21.86,12.62,32.42a30.54,30.54,0,0,1,2.52,13.09c-2.44.43-5.14,1-5.43-2.6-.73-8.79-5.52-15.51-10-22.73-3.31-5.34-2.65-12.57-4.07-18.88-1.72-7.6-7.72-12.92-8.62-20.72-.23-2-2.92-3.25-1.09-6.53.86-1.53-1.12-6.06-3.08-7.5-8.63-6.3-9-15.06-8.67-24.37C111.68,1104.78,111.66,1094.11,111.79,1083.44Z" transform="translate(-5.14)"/><path class="cls-5" d="M1227.57,173.89c-7.53,1.48-13.44-3.69-19-6.63-7.94-4.22-16.7-4.43-24.64-8.37a162.17,162.17,0,0,0-37.06-13.49c-9.47-2.06-18.27-6.75-28.18-6.93-3.57-.07-8,.67-8.5-4.93,9.94-2.86,19.3-1.5,28.5,3.16,5.08,2.57,10.51,5.67,15.94,6,9.24.62,16.71,4.26,24.09,9.13,1.58,1,4.09.91,6.18.95,6.67.12,13.34.11,20,.05,4.3,0,8.2,1.37,10.36,5,3,5,5.16,10.5,11.55,12.35C1227.4,170.36,1227.35,172.61,1227.57,173.89Z" transform="translate(-5.14)"/><path class="cls-5" d="M1422.31,303.93c2-3.89,2.85-7.47-2.29-9.74-1.74-.76-1.74-2.5-1.8-4.11,7.66-1.68,15-1.25,18.92,6.57,3.26,6.42,12.37,6.82,13.85,15.4.67,3.86,2,7.48,1.21,11.86-5.5,1.3-10.34,2.12-15.1-3.05-2.64-2.87-5.72-5.88-11-6.27C1420.15,314.16,1423,307.8,1422.31,303.93Z" transform="translate(-5.14)"/><path class="cls-5" d="M1202.34,213.47c12.41-2.81,22.85,4.2,33.85,7.5,7.28,2.18,14.87,3.53,22.09,6.75,6.65,3,13.86,6.81,21.94,6,1-.1,2.51,1,3.3,1.92,4.1,4.81,8.75,8.35,15.48,8.32,2.5,0,4,1.41,3.57,4.15-9.4,2.09-18.34,3.26-25.24-6.14-3.3-4.5-9.77-3.72-14.63-6.26-8.65-4.53-18.48-8.1-28.84-7.28-4.16.33-7.19-1.62-10.17-3.79-5-3.64-10-6.94-16.72-6C1203.19,219.19,1201.45,217.36,1202.34,213.47Z" transform="translate(-5.14)"/><path class="cls-5" d="M682.44,245.81c3.86-4.38,9.06-5.5,14.4-7.39,12-4.28,24.55-7.33,36.25-12.72,6.45-3,13.5-4.62,20.24-7,7.21-2.51,13.93-7.12,22.17-5.09,0,2.11.39,4.61-2.59,5-6.32.77-11.18,5.67-17.86,5.71-10.19.05-16.67,9.35-26.95,10.8-10.72,1.51-21.46,5.42-31.14,10.34-3.75,1.9-6.82,3.86-11,3.77C683.63,249.18,682.55,248,682.44,245.81Z" transform="translate(-5.14)"/><path class="cls-6" d="M650,1701.56c-.79-2.75-1.58-5.51-2.53-8.8-12.3.91-19.23-9.28-28.55-14.79-4.94-2.92-9.08-7.1-15.28-7.22-.15-6.12,5-5.12,7.2-3.75,7.4,4.68,16.61,5.9,23.07,12.18a52.06,52.06,0,0,0,18.41,12.09c4.46,1.66,2.16,6.55,2.72,10Z" transform="translate(-5.14)"/><path class="cls-5" d="M422.83,409.61c.26-1.27.08-3.17.85-3.73,12-8.54,19.52-21.84,32.28-29.58,3.76-2.28,7.46-2.28,11.39-2.39.79,2,1.72,5.17-1.13,5.14-7.27-.1-9.16,6-13.2,9.73-3.12,2.91-5.35,7-10.87,7.24-5,.25-3.36,6.78-6.82,9.78C431.26,409.33,427.86,411.05,422.83,409.61Z" transform="translate(-5.14)"/><path class="cls-5" d="M1359.51,272.58c9.16-1,15.29,6.21,23.13,8.57,9.55,2.88,15.22,13.17,26.16,13.07,4.26,0,4.24,3.15,4.21,6.18-9-1.34-17.3-2.07-25.73-8.71-6.28-4.95-12.54-15.24-24.43-12.18C1358.69,280.58,1356.91,276.75,1359.51,272.58Z" transform="translate(-5.14)"/><path class="cls-5" d="M314,363.57c-1.62,5.5-6.22,8.95-9.68,13-8,9.35-17.4,17.51-24.31,27.86-.3.44-1.51.27-2.29.39-1.76-5.31-1.18-9.89,4.29-12.69s3.64-10.07,8.52-13.6c2-1.46,3-4,6.2-3.7,2.39.25,4.11-.72,4.63-3.32C302.8,364.39,308.1,363.46,314,363.57Z" transform="translate(-5.14)"/><path class="cls-5" d="M382.63,449.86c.21-1.28,0-3,.7-3.78,11.08-12.09,21.47-24.87,34.21-35.37,1.59-1.31,3.39-1.27,5.26-1.08.4,7.19-6.18,9.68-9.86,13.87-7,8-15,15.05-22.38,22.73C388.26,448.63,386.53,451.36,382.63,449.86Z" transform="translate(-5.14)"/><path class="cls-5" d="M611.9,278.67c1-6.73,7.34-5.1,11.28-7,9-4.28,16.8-10.52,25.87-14.74,5.06-2.35,9.81-3.66,15.2-3.26a26.67,26.67,0,0,1-.22,3.76c-9,.65-14.38,8.45-22.23,11-6.85,2.26-12.91,6-19.32,9C619,279.21,615.71,280.88,611.9,278.67Z" transform="translate(-5.14)"/><path class="cls-5" d="M302.78,546.92c.73-7.71,6.07-12.73,10.68-18.15,5.93-7,11.16-14.6,18.69-20.08,2.06,4.46,1,8-2.74,11.22a45.15,45.15,0,0,0-12.07,17C314.74,543.12,309.82,546.78,302.78,546.92Z" transform="translate(-5.14)"/><path class="cls-5" d="M347.81,485.8c.67-6.82,7.5-9.12,10.83-14.19,5.37-8.18,13.71-14.43,20.91-21.38.59-.57,2-.26,3.07-.36a17.57,17.57,0,0,1-.18,9.22c-11.76.57-13.22,12.52-20,19C358.16,482.22,354.91,487.36,347.81,485.8Z" transform="translate(-5.14)"/><path class="cls-5" d="M121.43,714.46c-.16,7,1.21,14-3.79,20.39-2.61,3.33-1.26,8.26-1.44,12.46-.14,3.24-.6,5.81-4.41,6.25-.14-8.76-1.16-17.63-.07-26.22C112.38,722.14,114.79,716.16,121.43,714.46Z" transform="translate(-5.14)"/><path class="cls-5" d="M196.71,757.68c-2.75-9.85,5.45-16.58,7.5-25.15,1.37-5.7,2.82-12.33,7.74-16.83,4.75,3.2,1.8,7.5,0,9.77-4.82,6.19-4.66,12.69-3.18,19.93-3.56.92-6.41,2.25-6,6.82C203.26,756.36,200.46,757.77,196.71,757.68Z" transform="translate(-5.14)"/><path class="cls-5" d="M1322.74,253.92c12.8,4.46,26.08,7.93,36.09,18-6.06,1.35-11.39-1.41-16.39-3.83-5.82-2.82-10.49-7.92-17.21-9.19C1322.25,258.31,1322.63,256,1322.74,253.92Z" transform="translate(-5.14)"/><path class="cls-5" d="M106.72,781.87c-.13,6.27-.13,12.55-.47,18.8-.15,2.85-.67,5.83-4,7-4.91-8.5.5-16.76.77-25.13C103,782.28,105.43,782.1,106.72,781.87Z" transform="translate(-5.14)"/><path class="cls-5" d="M740.45,124.33c-.46,5-4.81,3.47-7.46,3.92-4.42.77-9,.52-13.54.69-.22-2.64.18-4.63,3.49-5.13C728.84,122.92,734.73,120.07,740.45,124.33Z" transform="translate(-5.14)"/><path class="cls-5" d="M1131.15,198.45c6.38-1.51,12.61,1.05,19,.7,2.31-.12,2.93,2,3.22,3.91-5.6,2.29-11.45.91-17.19,1.08C1132.5,204.24,1131.11,201.85,1131.15,198.45Z" transform="translate(-5.14)"/><path class="cls-5" d="M111.62,757.78c0,4.91-.09,9.82-.12,14.74,0,2.9-.63,5.25-4.37,4.7C103.54,770.4,106.09,759.31,111.62,757.78Z" transform="translate(-5.14)"/><path class="cls-5" d="M332.64,506.05c4.55-5.69,6.45-13.79,14.64-16.21C348.12,498.8,341.83,505.77,332.64,506.05Z" transform="translate(-5.14)"/><path class="cls-5" d="M1302.9,248.35c4.94.34,9.88.75,14.83,1,3,.15,5,1.27,5,4.6-5.06,0-10.13.19-15.2.09C1304,254,1300.89,253.16,1302.9,248.35Z" transform="translate(-5.14)"/><path class="cls-5" d="M107.39,1062.66c2.55-.43,4,.56,4.11,3.21.13,5,.16,10.09.24,15.13-1.51-.21-4,.21-4.22-1.25C106.89,1074.09,103.83,1068.36,107.39,1062.66Z" transform="translate(-5.14)"/><path class="cls-5" d="M1182.73,208.85c4.81.08,9.62.22,14.43.22,3.07,0,5.3.78,5.19,4.42-4.91.13-9.83.19-14.74.42C1183.93,214.09,1182.28,212.54,1182.73,208.85Z" transform="translate(-5.14)"/><path class="cls-5" d="M102.38,1041.37c3.55.62,4.51,3.11,4.56,6.29.07,4.95.18,9.9.28,14.85-2.88,1-5.33-.11-5.13-3C102.52,1053.47,100.41,1047.38,102.38,1041.37Z" transform="translate(-5.14)"/><path class="cls-5" d="M1248.39,183.72c-7.16-1.14-13.85-3.18-18.34-9.47C1240.16,173.18,1246.56,176.49,1248.39,183.72Z" transform="translate(-5.14)"/><path class="cls-5" d="M664.24,253.73c2.24-8.17,10-3.7,14.67-6.46.89,4.92-.78,7.46-6.15,6.89C669.93,253.86,667.08,253.86,664.24,253.73Z" transform="translate(-5.14)"/><path class="cls-5" d="M779.66,213.4c.43-5,4.25-4.35,7.51-4.46,3.09-.11,6.19,0,9.29,0,.27,3.1-.63,5.18-4.25,5C788,213.73,783.85,213.57,779.66,213.4Z" transform="translate(-5.14)"/><path class="cls-5" d="M1102.3,133c-4-.75-10,3.58-11.4-4.28C1096.27,126,1100.31,126.77,1102.3,133Z" transform="translate(-5.14)"/><path class="cls-5" d="M716.41,129.38c-2.9,6-8.52,3.52-13.11,4.25C705.16,127.63,710.27,126,716.41,129.38Z" transform="translate(-5.14)"/><path class="cls-5" d="M267.5,420c-1.84,5.12-4.86,9.08-10.35,10.64C255.06,421.71,261.47,421.05,267.5,420Z" transform="translate(-5.14)"/><path class="cls-5" d="M467.55,373.73c.57-5.89,4-8.8,9.71-9.33C477,370.56,474.25,374.22,467.55,373.73Z" transform="translate(-5.14)"/><path class="cls-7" d="M588.51,1872.68l5.51-.31c.23,3.32.91,6.71-1.61,10C587.08,1880.64,589.27,1876,588.51,1872.68Z" transform="translate(-5.14)"/><path class="cls-5" d="M166.93,1252c3.93,1.08,6.22,3.22,5,7.65C165.86,1260,165.11,1256.82,166.93,1252Z" transform="translate(-5.14)"/><path class="cls-5" d="M1402.61,278.88c-3.93.63-5-1.58-4.93-4.94C1402.11,272.81,1403.45,274.76,1402.61,278.88Z" transform="translate(-5.14)"/><path class="cls-5" d="M1413,300.44c2.06-.05,3.74.59,4.62,2.62-.47,1.25-1.12,2.39-2.71,1.75C1413,304,1412.61,302.36,1413,300.44Z" transform="translate(-5.14)"/><path class="cls-5" d="M268.85,418.24c.21,1.1-.33,1.62-1.36,1.76Z" transform="translate(-5.14)"/></svg>